<svg xmlns="http://www.w3.org/2000/svg" version="1.1" xmlns:xlink="http://www.w3.org/1999/xlink" xmlns:svgjs="http://svgjs.dev/svgjs" viewBox="0 0 16.60912847745451 4.911507403665298"><g transform="matrix(1,0,0,1,3.6730550652157556,0.8050787018326486)"><g><path d=" M 0.34875 0.9959999999999999 Q 0.225 0.9269999999999998 0.15375 0.8054999999999999 Q 0.0825 0.6839999999999999 0.0825 0.5324999999999999 Q 0.0825 0.3809999999999999 0.15375 0.25949999999999984 Q 0.225 0.1379999999999999 0.34875 0.06899999999999984 Q 0.47250000000000003 -2.220446049250313e-16 0.627 -2.220446049250313e-16 Q 0.741 -2.220446049250313e-16 0.837 0.03674999999999984 Q 0.933 0.0734999999999999 1.0005 0.14549999999999985 L 0.9525 0.19499999999999984 Q 0.8265 0.0704999999999999 0.63 0.0704999999999999 Q 0.498 0.0704999999999999 0.39 0.13049999999999984 Q 0.28200000000000003 0.1904999999999999 0.2205 0.2962499999999999 Q 0.159 0.4019999999999999 0.159 0.5324999999999999 Q 0.159 0.6629999999999998 0.2205 0.7687499999999998 Q 0.28200000000000003 0.8744999999999998 0.39 0.9344999999999999 Q 0.498 0.9944999999999999 0.63 0.9944999999999999 Q 0.8250000000000001 0.9944999999999999 0.9525 0.8684999999999998 L 1.0005 0.9179999999999999 Q 0.933 0.9899999999999999 0.83625 1.0274999999999999 Q 0.7395 1.065 0.627 1.065 Q 0.47250000000000003 1.065 0.34875 0.9959999999999999 M 1.990505126953125 1.0574999999999999 L 1.740005126953125 0.7064999999999999 Q 1.684505126953125 0.7139999999999999 1.638005126953125 0.7139999999999999 L 1.338005126953125 0.7139999999999999 L 1.338005126953125 1.0574999999999999 L 1.261505126953125 1.0574999999999999 L 1.261505126953125 0.00749999999999984 L 1.638005126953125 0.00749999999999984 Q 1.836005126953125 0.00749999999999984 1.9485051269531248 0.10124999999999984 Q 2.061005126953125 0.19499999999999984 2.061005126953125 0.3614999999999998 Q 2.061005126953125 0.4859999999999999 1.997255126953125 0.5707499999999999 Q 1.933505126953125 0.6554999999999999 1.815005126953125 0.69 L 2.077505126953125 1.0574999999999999 L 1.990505126953125 1.0574999999999999 M 1.638005126953125 0.6464999999999999 Q 1.806005126953125 0.6464999999999999 1.894505126953125 0.5722499999999999 Q 1.9830051269531248 0.4979999999999999 1.9830051269531248 0.3614999999999998 Q 1.9830051269531248 0.22499999999999987 1.894505126953125 0.15074999999999983 Q 1.806005126953125 0.0764999999999999 1.638005126953125 0.0764999999999999 L 1.338005126953125 0.0764999999999999 L 1.338005126953125 0.6464999999999999 L 1.638005126953125 0.6464999999999999 M 2.654946533203125 0.696 L 2.654946533203125 1.0574999999999999 L 2.578446533203125 1.0574999999999999 L 2.578446533203125 0.696 L 2.1554465332031247 0.00749999999999984 L 2.239446533203125 0.00749999999999984 L 2.618946533203125 0.6255 L 2.9984465332031247 0.00749999999999984 L 3.077946533203125 0.00749999999999984 L 2.654946533203125 0.696 M 3.306674560546875 1.0252499999999998 Q 3.2024245605468744 0.9854999999999998 3.1439245605468744 0.9224999999999999 L 3.178424560546875 0.8654999999999999 Q 3.2339245605468747 0.9239999999999999 3.3276745605468747 0.9607499999999999 Q 3.4214245605468747 0.9974999999999998 3.5249245605468746 0.9974999999999998 Q 3.6749245605468746 0.9974999999999998 3.751424560546875 0.9404999999999999 Q 3.8279245605468746 0.8834999999999998 3.8279245605468746 0.7919999999999998 Q 3.8279245605468746 0.7214999999999998 3.7874245605468744 0.6794999999999999 Q 3.7469245605468746 0.6375 3.6869245605468746 0.6149999999999999 Q 3.6269245605468745 0.5924999999999998 3.5249245605468746 0.5684999999999999 Q 3.4094245605468747 0.5399999999999999 3.3396745605468747 0.5129999999999999 Q 3.2699245605468747 0.4859999999999999 3.2211745605468747 0.42974999999999985 Q 3.1724245605468746 0.37349999999999983 3.1724245605468746 0.2789999999999999 Q 3.1724245605468746 0.2024999999999999 3.212924560546875 0.13874999999999982 Q 3.2534245605468746 0.07499999999999984 3.3366745605468746 0.03749999999999987 Q 3.4199245605468747 -2.220446049250313e-16 3.5444245605468745 -2.220446049250313e-16 Q 3.6314245605468747 -2.220446049250313e-16 3.7154245605468748 0.025499999999999856 Q 3.799424560546875 0.050999999999999934 3.8609245605468745 0.09449999999999992 L 3.8324245605468747 0.15599999999999992 Q 3.7694245605468746 0.11249999999999982 3.6936745605468744 0.08999999999999986 Q 3.6179245605468746 0.0674999999999999 3.5444245605468745 0.0674999999999999 Q 3.3989245605468748 0.0674999999999999 3.3239245605468746 0.1259999999999999 Q 3.2489245605468744 0.1844999999999999 3.2489245605468744 0.27749999999999986 Q 3.2489245605468744 0.34799999999999986 3.2894245605468746 0.3899999999999999 Q 3.329924560546875 0.43199999999999983 3.3899245605468744 0.4544999999999999 Q 3.4499245605468745 0.47699999999999987 3.5534245605468744 0.5024999999999998 Q 3.6689245605468748 0.5309999999999999 3.7379245605468747 0.5579999999999998 Q 3.8069245605468747 0.5849999999999999 3.8556745605468747 0.6397499999999998 Q 3.9044245605468744 0.6944999999999999 3.9044245605468744 0.7874999999999999 Q 3.9044245605468744 0.8639999999999999 3.8631745605468746 0.9269999999999998 Q 3.821924560546875 0.9899999999999999 3.7364245605468747 1.0274999999999999 Q 3.6509245605468745 1.065 3.5264245605468747 1.065 Q 3.4109245605468748 1.065 3.306674560546875 1.0252499999999998 M 4.354423095703125 0.0764999999999999 L 3.9764230957031246 0.0764999999999999 L 3.9764230957031246 0.00749999999999984 L 4.808923095703125 0.00749999999999984 L 4.808923095703125 0.0764999999999999 L 4.4309230957031245 0.0764999999999999 L 4.4309230957031245 1.0574999999999999 L 4.354423095703125 1.0574999999999999 L 4.354423095703125 0.0764999999999999 M 5.59944580078125 0.7619999999999999 L 4.9904458007812496 0.7619999999999999 L 4.85694580078125 1.0574999999999999 L 4.77444580078125 1.0574999999999999 L 5.25744580078125 0.00749999999999984 L 5.33394580078125 0.00749999999999984 L 5.81694580078125 1.0574999999999999 L 5.73444580078125 1.0574999999999999 L 5.59944580078125 0.7619999999999999 M 5.57094580078125 0.6974999999999999 L 5.2949458007812495 0.09149999999999991 L 5.02044580078125 0.6974999999999999 L 5.57094580078125 0.6974999999999999 M 6.011971435546875 0.00749999999999984 L 6.088471435546875 0.00749999999999984 L 6.088471435546875 0.9884999999999999 L 6.692971435546875 0.9884999999999999 L 6.692971435546875 1.0574999999999999 L 6.011971435546875 1.0574999999999999 L 6.011971435546875 0.00749999999999984 M 7.449782958984375 0.9959999999999999 Q 7.326032958984375 0.9269999999999998 7.254782958984375 0.8054999999999999 Q 7.183532958984375 0.6839999999999999 7.183532958984375 0.5324999999999999 Q 7.183532958984375 0.3809999999999999 7.254782958984375 0.25949999999999984 Q 7.326032958984375 0.1379999999999999 7.449782958984375 0.06899999999999984 Q 7.573532958984376 -2.220446049250313e-16 7.728032958984375 -2.220446049250313e-16 Q 7.842032958984375 -2.220446049250313e-16 7.938032958984375 0.03674999999999984 Q 8.034032958984376 0.0734999999999999 8.101532958984375 0.14549999999999985 L 8.053532958984375 0.19499999999999984 Q 7.927532958984376 0.0704999999999999 7.731032958984375 0.0704999999999999 Q 7.599032958984376 0.0704999999999999 7.491032958984375 0.13049999999999984 Q 7.3830329589843755 0.1904999999999999 7.321532958984376 0.2962499999999999 Q 7.260032958984375 0.4019999999999999 7.260032958984375 0.5324999999999999 Q 7.260032958984375 0.6629999999999998 7.321532958984376 0.7687499999999998 Q 7.3830329589843755 0.8744999999999998 7.491032958984375 0.9344999999999999 Q 7.599032958984376 0.9944999999999999 7.731032958984375 0.9944999999999999 Q 7.926032958984376 0.9944999999999999 8.053532958984375 0.8684999999999998 L 8.101532958984375 0.9179999999999999 Q 8.034032958984376 0.9899999999999999 7.937282958984375 1.0274999999999999 Q 7.840532958984376 1.065 7.728032958984375 1.065 Q 7.573532958984376 1.065 7.449782958984375 0.9959999999999999 M 8.3625380859375 0.00749999999999984 L 8.439038085937499 0.00749999999999984 L 8.439038085937499 0.9884999999999999 L 9.0435380859375 0.9884999999999999 L 9.0435380859375 1.0574999999999999 L 8.3625380859375 1.0574999999999999 L 8.3625380859375 0.00749999999999984 M 9.969071044921876 0.9884999999999999 L 9.969071044921876 1.0574999999999999 L 9.244571044921875 1.0574999999999999 L 9.244571044921875 0.00749999999999984 L 9.946571044921875 0.00749999999999984 L 9.946571044921875 0.0764999999999999 L 9.321071044921874 0.0764999999999999 L 9.321071044921874 0.4904999999999998 L 9.880571044921876 0.4904999999999998 L 9.880571044921876 0.5579999999999998 L 9.321071044921874 0.5579999999999998 L 9.321071044921874 0.9884999999999999 L 9.969071044921876 0.9884999999999999 M 10.90208056640625 0.7619999999999999 L 10.29308056640625 0.7619999999999999 L 10.15958056640625 1.0574999999999999 L 10.07708056640625 1.0574999999999999 L 10.560080566406251 0.00749999999999984 L 10.63658056640625 0.00749999999999984 L 11.11958056640625 1.0574999999999999 L 11.03708056640625 1.0574999999999999 L 10.90208056640625 0.7619999999999999 M 10.87358056640625 0.6974999999999999 L 10.59758056640625 0.09149999999999991 L 10.32308056640625 0.6974999999999999 L 10.87358056640625 0.6974999999999999 M 12.043606201171876 1.0574999999999999 L 11.793106201171875 0.7064999999999999 Q 11.737606201171875 0.7139999999999999 11.691106201171875 0.7139999999999999 L 11.391106201171874 0.7139999999999999 L 11.391106201171874 1.0574999999999999 L 11.314606201171875 1.0574999999999999 L 11.314606201171875 0.00749999999999984 L 11.691106201171875 0.00749999999999984 Q 11.889106201171876 0.00749999999999984 12.001606201171874 0.10124999999999984 Q 12.114106201171875 0.19499999999999984 12.114106201171875 0.3614999999999998 Q 12.114106201171875 0.4859999999999999 12.050356201171875 0.5707499999999999 Q 11.986606201171876 0.6554999999999999 11.868106201171875 0.69 L 12.130606201171876 1.0574999999999999 L 12.043606201171876 1.0574999999999999 M 11.691106201171875 0.6464999999999999 Q 11.859106201171876 0.6464999999999999 11.947606201171876 0.5722499999999999 Q 12.036106201171876 0.4979999999999999 12.036106201171876 0.3614999999999998 Q 12.036106201171876 0.22499999999999987 11.947606201171876 0.15074999999999983 Q 11.859106201171876 0.0764999999999999 11.691106201171875 0.0764999999999999 L 11.391106201171874 0.0764999999999999 L 11.391106201171874 0.6464999999999999 L 11.691106201171875 0.6464999999999999 M 0.23925000000000002 2.39025 Q 0.135 2.3505 0.0765 2.2874999999999996 L 0.111 2.2304999999999997 Q 0.1665 2.2889999999999997 0.26025 2.3257499999999998 Q 0.354 2.3625 0.4575 2.3625 Q 0.6075 2.3625 0.684 2.3055 Q 0.7605000000000001 2.2485 0.7605000000000001 2.157 Q 0.7605000000000001 2.0865 0.72 2.0444999999999998 Q 0.6795 2.0025 0.6195 1.98 Q 0.5595 1.9574999999999998 0.4575 1.9335 Q 0.342 1.9049999999999998 0.27225 1.878 Q 0.2025 1.851 0.15375 1.7947499999999998 Q 0.105 1.7384999999999997 0.105 1.644 Q 0.105 1.5675 0.1455 1.5037499999999997 Q 0.186 1.44 0.26925 1.4024999999999999 Q 0.3525 1.3649999999999998 0.47700000000000004 1.3649999999999998 Q 0.5640000000000001 1.3649999999999998 0.648 1.3904999999999998 Q 0.732 1.416 0.7935 1.4594999999999998 L 0.765 1.521 Q 0.7020000000000001 1.4774999999999998 0.62625 1.4549999999999998 Q 0.5505 1.4324999999999999 0.47700000000000004 1.4324999999999999 Q 0.3315 1.4324999999999999 0.2565 1.4909999999999999 Q 0.1815 1.5494999999999999 0.1815 1.6424999999999998 Q 0.1815 1.7129999999999999 0.222 1.755 Q 0.2625 1.7969999999999997 0.3225 1.8195 Q 0.3825 1.8419999999999999 0.486 1.8674999999999997 Q 0.6015 1.896 0.6705 1.9229999999999998 Q 0.7395 1.9499999999999997 0.78825 2.00475 Q 0.837 2.0595 0.837 2.1525 Q 0.837 2.229 0.7957500000000001 2.292 Q 0.7545000000000001 2.355 0.669 2.3925 Q 0.5835 2.4299999999999997 0.459 2.4299999999999997 Q 0.3435 2.4299999999999997 0.23925000000000002 2.39025 M 1.26751318359375 2.3602499999999997 Q 1.14301318359375 2.2904999999999998 1.07176318359375 2.169 Q 1.00051318359375 2.0475 1.00051318359375 1.8975 Q 1.00051318359375 1.7474999999999998 1.07176318359375 1.626 Q 1.14301318359375 1.5044999999999997 1.26751318359375 1.4347499999999997 Q 1.39201318359375 1.3649999999999998 1.54651318359375 1.3649999999999998 Q 1.70101318359375 1.3649999999999998 1.82551318359375 1.4339999999999997 Q 1.95001318359375 1.503 2.0212631835937502 1.6244999999999998 Q 2.0925131835937503 1.746 2.0925131835937503 1.8975 Q 2.0925131835937503 2.049 2.0212631835937502 2.1704999999999997 Q 1.95001318359375 2.292 1.82551318359375 2.3609999999999998 Q 1.70101318359375 2.4299999999999997 1.54651318359375 2.4299999999999997 Q 1.39201318359375 2.4299999999999997 1.26751318359375 2.3602499999999997 M 1.78501318359375 2.2995 Q 1.89151318359375 2.2395 1.9530131835937499 2.13375 Q 2.01451318359375 2.028 2.01451318359375 1.8975 Q 2.01451318359375 1.767 1.9530131835937499 1.66125 Q 1.89151318359375 1.5554999999999999 1.78501318359375 1.4954999999999998 Q 1.6785131835937501 1.4354999999999998 1.54651318359375 1.4354999999999998 Q 1.41451318359375 1.4354999999999998 1.3072631835937498 1.4954999999999998 Q 1.20001318359375 1.5554999999999999 1.1385131835937499 1.66125 Q 1.07701318359375 1.767 1.07701318359375 1.8975 Q 1.07701318359375 2.028 1.1385131835937499 2.13375 Q 1.20001318359375 2.2395 1.3072631835937498 2.2995 Q 1.41451318359375 2.3594999999999997 1.54651318359375 2.3594999999999997 Q 1.6785131835937501 2.3594999999999997 1.78501318359375 2.2995 M 2.3625322265624997 1.3724999999999998 L 2.4390322265625 1.3724999999999998 L 2.4390322265625 2.3535 L 3.0435322265624998 2.3535 L 3.0435322265624998 2.4225 L 2.3625322265624997 2.4225 L 2.3625322265624997 1.3724999999999998 M 3.3248496093749997 2.3145 Q 3.2145996093749996 2.199 3.2145996093749996 1.9769999999999999 L 3.2145996093749996 1.3724999999999998 L 3.291099609375 1.3724999999999998 L 3.291099609375 1.9739999999999998 Q 3.291099609375 2.1675 3.3795996093749996 2.2635 Q 3.468099609375 2.3594999999999997 3.6360996093749995 2.3594999999999997 Q 3.8025996093749996 2.3594999999999997 3.891099609375 2.2635 Q 3.9795996093749997 2.1675 3.9795996093749997 1.9739999999999998 L 3.9795996093749997 1.3724999999999998 L 4.056099609375 1.3724999999999998 L 4.056099609375 1.9769999999999999 Q 4.056099609375 2.199 3.9450996093749997 2.3145 Q 3.8340996093749995 2.4299999999999997 3.6345996093749995 2.4299999999999997 Q 3.4350996093749995 2.4299999999999997 3.3248496093749997 2.3145 M 4.5976787109375 1.4415 L 4.2196787109375 1.4415 L 4.2196787109375 1.3724999999999998 L 5.0521787109375 1.3724999999999998 L 5.0521787109375 1.4415 L 4.6741787109374995 1.4415 L 4.6741787109374995 2.4225 L 4.5976787109375 2.4225 L 4.5976787109375 1.4415 M 5.2456611328125 1.3724999999999998 L 5.3221611328125 1.3724999999999998 L 5.3221611328125 2.4225 L 5.2456611328125 2.4225 L 5.2456611328125 1.3724999999999998 M 5.859135498046875 2.3602499999999997 Q 5.734635498046875 2.2904999999999998 5.663385498046875 2.169 Q 5.592135498046875 2.0475 5.592135498046875 1.8975 Q 5.592135498046875 1.7474999999999998 5.663385498046875 1.626 Q 5.734635498046875 1.5044999999999997 5.859135498046875 1.4347499999999997 Q 5.983635498046875 1.3649999999999998 6.138135498046875 1.3649999999999998 Q 6.2926354980468755 1.3649999999999998 6.417135498046875 1.4339999999999997 Q 6.541635498046875 1.503 6.612885498046875 1.6244999999999998 Q 6.684135498046875 1.746 6.684135498046875 1.8975 Q 6.684135498046875 2.049 6.612885498046875 2.1704999999999997 Q 6.541635498046875 2.292 6.417135498046875 2.3609999999999998 Q 6.2926354980468755 2.4299999999999997 6.138135498046875 2.4299999999999997 Q 5.983635498046875 2.4299999999999997 5.859135498046875 2.3602499999999997 M 6.376635498046875 2.2995 Q 6.483135498046876 2.2395 6.544635498046875 2.13375 Q 6.606135498046875 2.028 6.606135498046875 1.8975 Q 6.606135498046875 1.767 6.544635498046875 1.66125 Q 6.483135498046876 1.5554999999999999 6.376635498046875 1.4954999999999998 Q 6.2701354980468755 1.4354999999999998 6.138135498046875 1.4354999999999998 Q 6.006135498046875 1.4354999999999998 5.898885498046875 1.4954999999999998 Q 5.791635498046875 1.5554999999999999 5.7301354980468755 1.66125 Q 5.668635498046875 1.767 5.668635498046875 1.8975 Q 5.668635498046875 2.028 5.7301354980468755 2.13375 Q 5.791635498046875 2.2395 5.898885498046875 2.2995 Q 6.006135498046875 2.3594999999999997 6.138135498046875 2.3594999999999997 Q 6.2701354980468755 2.3594999999999997 6.376635498046875 2.2995 M 7.809154541015626 1.3724999999999998 L 7.809154541015626 2.4225 L 7.746154541015625 2.4225 L 7.030654541015625 1.5105 L 7.030654541015625 2.4225 L 6.954154541015625 2.4225 L 6.954154541015625 1.3724999999999998 L 7.018654541015625 1.3724999999999998 L 7.732654541015625 2.2845 L 7.732654541015625 1.3724999999999998 L 7.809154541015626 1.3724999999999998" fill="#002633" fill-rule="nonzero"></path></g><g><path d=" M 0.138 3.2473500000000004 Q 0.081 3.1888500000000004 0.081 3.0771 L 0.081 2.7763500000000003 L 0.1365 2.7763500000000003 L 0.1365 3.07485 Q 0.1365 3.1663500000000004 0.17775 3.2113500000000004 Q 0.219 3.2563500000000003 0.297 3.2563500000000003 Q 0.37575000000000003 3.2563500000000003 0.417 3.2113500000000004 Q 0.45825 3.1663500000000004 0.45825 3.07485 L 0.45825 2.7763500000000003 L 0.51225 2.7763500000000003 L 0.51225 3.0771 Q 0.51225 3.1888500000000004 0.455625 3.2473500000000004 Q 0.399 3.3058500000000004 0.297 3.3058500000000004 Q 0.195 3.3058500000000004 0.138 3.2473500000000004 M 1.119369140625 2.7763500000000003 L 1.119369140625 3.3013500000000002 L 1.073619140625 3.3013500000000002 L 0.736119140625 2.87535 L 0.736119140625 3.3013500000000002 L 0.680619140625 3.3013500000000002 L 0.680619140625 2.7763500000000003 L 0.7263691406249999 2.7763500000000003 L 1.064619140625 3.20235 L 1.064619140625 2.7763500000000003 L 1.119369140625 2.7763500000000003 M 1.2914853515624996 2.7763500000000003 L 1.3469853515624997 2.7763500000000003 L 1.3469853515624997 3.25335 L 1.6409853515624997 3.25335 L 1.6409853515624997 3.3013500000000002 L 1.2914853515624996 3.3013500000000002 L 1.2914853515624996 2.7763500000000003 M 1.811994506835937 3.2709750000000004 Q 1.7486195068359371 3.2361000000000004 1.7129945068359371 3.1753500000000003 Q 1.677369506835937 3.1146000000000003 1.677369506835937 3.03885 Q 1.677369506835937 2.9631000000000003 1.7129945068359371 2.90235 Q 1.7486195068359371 2.8416 1.811994506835937 2.806725 Q 1.8753695068359373 2.77185 1.9533695068359371 2.77185 Q 2.0313695068359374 2.77185 2.093994506835937 2.80635 Q 2.1566195068359373 2.84085 2.1926195068359373 2.901975 Q 2.2286195068359373 2.9631000000000003 2.2286195068359373 3.03885 Q 2.2286195068359373 3.1146000000000003 2.1926195068359373 3.1757250000000004 Q 2.1566195068359373 3.2368500000000004 2.093994506835937 3.2713500000000004 Q 2.0313695068359374 3.3058500000000004 1.9533695068359371 3.3058500000000004 Q 1.8753695068359373 3.3058500000000004 1.811994506835937 3.2709750000000004 M 2.065869506835937 3.228225 Q 2.116119506835937 3.2001000000000004 2.1446195068359373 3.1502250000000003 Q 2.1731195068359375 3.10035 2.1731195068359375 3.03885 Q 2.1731195068359375 2.9773500000000004 2.1446195068359373 2.9274750000000003 Q 2.116119506835937 2.8776 2.065869506835937 2.849475 Q 2.0156195068359373 2.8213500000000002 1.9533695068359371 2.8213500000000002 Q 1.8911195068359372 2.8213500000000002 1.8404945068359373 2.849475 Q 1.7898695068359372 2.8776 1.7609945068359372 2.9274750000000003 Q 1.7321195068359372 2.9773500000000004 1.7321195068359372 3.03885 Q 1.7321195068359372 3.10035 1.7609945068359372 3.1502250000000003 Q 1.7898695068359372 3.2001000000000004 1.8404945068359373 3.228225 Q 1.8911195068359372 3.2563500000000003 1.9533695068359371 3.2563500000000003 Q 2.0156195068359373 3.2563500000000003 2.065869506835937 3.228225 M 2.441611450195312 3.2713500000000004 Q 2.3789864501953124 3.2368500000000004 2.3433614501953124 3.1757250000000004 Q 2.3077364501953124 3.1146000000000003 2.3077364501953124 3.03885 Q 2.3077364501953124 2.9631000000000003 2.3433614501953124 2.901975 Q 2.3789864501953124 2.84085 2.441986450195312 2.80635 Q 2.5049864501953123 2.77185 2.582986450195312 2.77185 Q 2.641486450195312 2.77185 2.6909864501953122 2.7913500000000004 Q 2.7404864501953123 2.8108500000000003 2.7749864501953123 2.8483500000000004 L 2.7397364501953123 2.8836000000000004 Q 2.678236450195312 2.8213500000000002 2.584486450195312 2.8213500000000002 Q 2.522236450195312 2.8213500000000002 2.4712364501953124 2.84985 Q 2.420236450195312 2.87835 2.3913614501953124 2.9278500000000003 Q 2.3624864501953122 2.9773500000000004 2.3624864501953122 3.03885 Q 2.3624864501953122 3.10035 2.3913614501953124 3.1498500000000003 Q 2.420236450195312 3.1993500000000004 2.4712364501953124 3.22785 Q 2.522236450195312 3.2563500000000003 2.584486450195312 3.2563500000000003 Q 2.6789864501953122 3.2563500000000003 2.7397364501953123 3.19335 L 2.7749864501953123 3.2286 Q 2.7404864501953123 3.2661000000000002 2.6906114501953122 3.285975 Q 2.640736450195312 3.3058500000000004 2.582236450195312 3.3058500000000004 Q 2.5042364501953123 3.3058500000000004 2.441611450195312 3.2713500000000004 M 3.0573570556640624 3.0546 L 2.9501070556640623 3.1633500000000003 L 2.9501070556640623 3.3013500000000002 L 2.8946070556640624 3.3013500000000002 L 2.8946070556640624 2.7763500000000003 L 2.9501070556640623 2.7763500000000003 L 2.9501070556640623 3.0936000000000003 L 3.2583570556640624 2.7763500000000003 L 3.322107055664062 2.7763500000000003 L 3.0948570556640624 3.0141 L 3.3378570556640623 3.3013500000000002 L 3.2718570556640625 3.3013500000000002 L 3.0573570556640624 3.0546 M 3.42898095703125 2.7763500000000003 L 3.48448095703125 2.7763500000000003 L 3.48448095703125 3.3013500000000002 L 3.42898095703125 3.3013500000000002 L 3.42898095703125 2.7763500000000003 M 4.095357421875 2.7763500000000003 L 4.095357421875 3.3013500000000002 L 4.049607421875 3.3013500000000002 L 3.712107421875 2.87535 L 3.712107421875 3.3013500000000002 L 3.656607421875 3.3013500000000002 L 3.656607421875 2.7763500000000003 L 3.702357421875 2.7763500000000003 L 4.040607421875 3.20235 L 4.040607421875 2.7763500000000003 L 4.095357421875 2.7763500000000003 M 4.6372236328125 3.03885 L 4.690473632812499 3.03885 L 4.690473632812499 3.2391 Q 4.6537236328125 3.2713500000000004 4.603473632812499 3.2886 Q 4.553223632812499 3.3058500000000004 4.4977236328125 3.3058500000000004 Q 4.4189736328124996 3.3058500000000004 4.3559736328125 3.2713500000000004 Q 4.292973632812499 3.2368500000000004 4.2569736328125 3.1757250000000004 Q 4.220973632812499 3.1146000000000003 4.220973632812499 3.03885 Q 4.220973632812499 2.9631000000000003 4.2569736328125 2.901975 Q 4.292973632812499 2.84085 4.3559736328125 2.80635 Q 4.4189736328124996 2.77185 4.4984736328125 2.77185 Q 4.5584736328124995 2.77185 4.6087236328125 2.7909750000000004 Q 4.6589736328125 2.8101000000000003 4.693473632812499 2.8476000000000004 L 4.6589736328125 2.8828500000000004 Q 4.596723632812499 2.8213500000000002 4.500723632812499 2.8213500000000002 Q 4.436973632812499 2.8213500000000002 4.385598632812499 2.849475 Q 4.334223632812499 2.8776 4.3049736328125 2.9274750000000003 Q 4.2757236328124995 2.9773500000000004 4.2757236328124995 3.03885 Q 4.2757236328124995 3.10035 4.3049736328125 3.1498500000000003 Q 4.334223632812499 3.1993500000000004 4.385223632812499 3.22785 Q 4.436223632812499 3.2563500000000003 4.499973632812499 3.2563500000000003 Q 4.5809736328124995 3.2563500000000003 4.6372236328125 3.21585 L 4.6372236328125 3.03885 M 5.399999267578124 2.8243500000000004 Q 5.456999267578125 2.8723500000000004 5.456999267578125 2.95635 Q 5.456999267578125 3.04035 5.399999267578124 3.087975 Q 5.342999267578125 3.1356 5.242499267578125 3.1356 L 5.1014992675781246 3.1356 L 5.1014992675781246 3.3013500000000002 L 5.045999267578124 3.3013500000000002 L 5.045999267578124 2.7763500000000003 L 5.242499267578125 2.7763500000000003 Q 5.342999267578125 2.7763500000000003 5.399999267578124 2.8243500000000004 M 5.360249267578125 3.052725 Q 5.401499267578124 3.0186 5.401499267578124 2.95635 Q 5.401499267578124 2.8926000000000003 5.360249267578125 2.8584750000000003 Q 5.318999267578125 2.8243500000000004 5.2409992675781245 2.8243500000000004 L 5.1014992675781246 2.8243500000000004 L 5.1014992675781246 3.08685 L 5.2409992675781245 3.08685 Q 5.318999267578125 3.08685 5.360249267578125 3.052725 M 5.6343837890624995 3.2473500000000004 Q 5.5773837890625 3.1888500000000004 5.5773837890625 3.0771 L 5.5773837890625 2.7763500000000003 L 5.632883789062499 2.7763500000000003 L 5.632883789062499 3.07485 Q 5.632883789062499 3.1663500000000004 5.674133789062499 3.2113500000000004 Q 5.7153837890625 3.2563500000000003 5.793383789062499 3.2563500000000003 Q 5.8721337890625 3.2563500000000003 5.913383789062499 3.2113500000000004 Q 5.954633789062499 3.1663500000000004 5.954633789062499 3.07485 L 5.954633789062499 2.7763500000000003 L 6.0086337890624995 2.7763500000000003 L 6.0086337890624995 3.0771 Q 6.0086337890624995 3.1888500000000004 5.9520087890625 3.2473500000000004 Q 5.8953837890625 3.3058500000000004 5.793383789062499 3.3058500000000004 Q 5.6913837890625 3.3058500000000004 5.6343837890624995 3.2473500000000004 M 6.5355029296875 3.3013500000000002 L 6.4155029296874995 3.1326 Q 6.3952529296875 3.13485 6.3735029296875 3.13485 L 6.2325029296875 3.13485 L 6.2325029296875 3.3013500000000002 L 6.177002929687499 3.3013500000000002 L 6.177002929687499 2.7763500000000003 L 6.3735029296875 2.7763500000000003 Q 6.4740029296875 2.7763500000000003 6.531002929687499 2.8243500000000004 Q 6.5880029296875 2.8723500000000004 6.5880029296875 2.95635 Q 6.5880029296875 3.01785 6.5568779296874995 3.0602250000000004 Q 6.525752929687499 3.1026000000000002 6.4680029296875 3.12135 L 6.5962529296875 3.3013500000000002 L 6.5355029296875 3.3013500000000002 M 6.4912529296875 3.0531 Q 6.5325029296874995 3.0186 6.5325029296874995 2.95635 Q 6.5325029296874995 2.8926000000000003 6.4912529296875 2.8584750000000003 Q 6.4500029296875 2.8243500000000004 6.3720029296875 2.8243500000000004 L 6.2325029296875 2.8243500000000004 L 6.2325029296875 3.0876 L 6.3720029296875 3.0876 Q 6.4500029296875 3.0876 6.4912529296875 3.0531 M 6.720394775390624 2.7763500000000003 L 6.775894775390625 2.7763500000000003 L 6.775894775390625 3.3013500000000002 L 6.720394775390624 3.3013500000000002 L 6.720394775390624 2.7763500000000003 M 7.050021240234375 2.8243500000000004 L 6.865521240234375 2.8243500000000004 L 6.865521240234375 2.7763500000000003 L 7.290021240234375 2.7763500000000003 L 7.290021240234375 2.8243500000000004 L 7.105521240234375 2.8243500000000004 L 7.105521240234375 3.3013500000000002 L 7.050021240234375 3.3013500000000002 L 7.050021240234375 2.8243500000000004 M 7.55587353515625 3.1198500000000005 L 7.55587353515625 3.3013500000000002 L 7.50112353515625 3.3013500000000002 L 7.50112353515625 3.1198500000000005 L 7.29112353515625 2.7763500000000003 L 7.350373535156249 2.7763500000000003 L 7.53037353515625 3.0711000000000004 L 7.71037353515625 2.7763500000000003 L 7.76587353515625 2.7763500000000003 L 7.55587353515625 3.1198500000000005" fill="#1dd000" fill-rule="nonzero"></path></g><g clip-path="url(#SvgjsClipPath1017)"><g clip-path="url(#SvgjsClipPath1016d9662d69-5f1b-4737-98b1-71aeb0060cb7)"><path d=" M -0.42071158476347614 2.0642823724607258 C -0.45903985348960186 1.8197480179880439 -0.5448951754361238 1.5851790133841552 -0.6683122007342477 1.3713072738923744 L -1.5038684589637863 -0.08056754545326483 L -2.1976101229066605 1.1390379654120528 C -2.219840518767813 1.1781327995127007 -2.2413043492544436 1.2179941989878718 -2.2612350489920288 1.2578555984630422 C -2.1477833735626968 1.256322467713997 -2.0473633095002484 1.2463571178452042 -1.973006468171564 1.2371583333509344 C -1.8465231813753493 1.2202938951114393 -1.7177401984555671 1.2195273297369167 -1.5920234770338755 1.2417577255980696 C -0.7304039960705708 1.392771104379004 -0.49123559921954785 2.1685352633957873 -0.4253109770106116 2.5847802617615114 C -0.38851583903353104 2.4077036602468107 -0.39618149277875636 2.226027666484976 -0.42071158476347614 2.0642823724607258 Z M -1.0860903298490172 0.9259327912947939 C -1.0853237644744946 0.9213333990476589 -1.1435827329382058 0.8845382610705783 -1.149715255934386 0.8799388688234431 C -1.1650465634248361 0.8684403882056054 -1.1834441324133764 0.8569419075877678 -1.1964757437802593 0.8423771654718399 C -1.1995420052783494 0.8393109039737499 -1.201841701401917 0.8354780771011372 -1.2041413975254844 0.8316452502285249 C -1.22713835876116 0.7933169815023992 -1.2332708817573401 0.7465564936565259 -1.218706139641412 0.7036288326832654 C -1.213340182019755 0.6875309598182925 -1.202608266776439 0.6706665215787971 -1.185743828536944 0.6668336947061845 C -1.177311609417196 0.6645339985826169 -1.1681128249229262 0.6668336947061845 -1.158914040428656 0.6698999562042746 C -1.1129201179573052 0.6867643944437697 -1.0845571990999727 0.7335248822896432 -1.0761249799802248 0.7818185008845615 C -1.0684593262349995 0.8293455541049575 -1.07765811072927 0.8784057380743983 -1.0860903298490172 0.9259327912947939 Z M -1.0010015732770186 1.0961103044387916 C -1.0239985345126938 1.1045425235585395 -1.052361453370027 1.0823121276973866 -1.0646264993623873 1.047050120469351 C -1.0768915453547478 1.0117881132413156 -1.068459326235 0.9765261060132797 -1.0454623649993247 0.9688604522680551 C -1.0224654037636494 0.9604282331483072 -0.9941024849063163 0.9826586290094601 -0.9818374389139559 1.0179206362374957 C -0.9695723929215954 1.0531826434655311 -0.9780046120413433 1.087678085319044 -1.0010015732770186 1.0961103044387916 Z" fill="#002633" transform="matrix(1,0,0,1,0,0)" fill-rule="nonzero"></path></g><g clip-path="url(#SvgjsClipPath1016d9662d69-5f1b-4737-98b1-71aeb0060cb7)"><path d=" M -1.8127943048963595 2.8983054999412188 C -2.035864828882411 2.934334072543777 -2.2658344412391647 2.9006051960647863 -2.4643748732404953 2.794819174380679 C -2.373153593672316 3.004091521625326 -2.222140214891381 3.142073289039378 -2.066527443863311 3.2325280032330346 C -1.7736994707957117 3.402705516377033 -1.4195462677663109 3.424935912238185 -1.0998885065904227 3.3122508021833754 C -0.7832970069126257 3.2003322575030886 -0.6008544477762672 3.017889698366731 -0.5019675144628626 2.8109170472456526 C -0.79402892215594 2.749591817283851 -1.472439278608364 2.8438793583501205 -1.8127943048963595 2.8983054999412188 Z" fill="#002633" transform="matrix(1,0,0,1,0,0)" fill-rule="nonzero"></path></g><g clip-path="url(#SvgjsClipPath1016d9662d69-5f1b-4737-98b1-71aeb0060cb7)"><path d=" M -0.49890125296477317 2.5755814772672414 C -0.5379960870654208 2.4958586783168997 -0.5809237480386824 2.419202140864649 -0.6330501935062123 2.3471449956595327 C -0.791729226032373 2.127907298546094 -0.9864368311610909 1.9362659549154653 -1.2371037086299528 1.824347410235179 C -1.483171193851679 1.7147285616784596 -1.7323049405714956 1.6664349430835412 -2.0044356485269876 1.6672015084580638 C -2.1240198469525 1.6679680738325864 -2.2267396071385166 1.658769289338316 -2.31336149445956 1.644971112596911 C -2.349390067062118 1.6396051549752537 -2.3838855089156312 1.631172935855506 -2.4183809507691443 1.620441020612191 C -2.6130885558978627 1.5606489213994348 -2.7794332421692483 1.426499980857995 -2.8767870447336072 1.2440574217216371 C -2.8775536101081296 1.2432908563471146 -2.8775536101081296 1.242524290972592 -2.878320175482652 1.2417577255980696 C -2.878320175482652 1.2417577255980696 -2.878320175482652 1.2417577255980696 -2.878320175482652 1.2417577255980696 C -2.8921183522240574 1.2348586372273669 -2.9059165289654625 1.2271929834821416 -2.9197147057068675 1.2195273297369167 C -2.9197147057068675 1.2195273297369167 -3.109056353213928 2.173901221017445 -2.517267884082548 2.6399729687271325 C -2.491204661348783 2.660670233839241 -2.4636083078659725 2.679834368202303 -2.434478823634117 2.6989985025653658 C -2.2405377838799208 2.82241552786349 -2.005968779276033 2.8630434927131834 -1.7790654284173688 2.827014920110626 C -1.4241456600134452 2.7702890823959594 -0.6683122007342477 2.6668027568354207 -0.48663620697241283 2.7787213015157066 C -0.4851030762233668 2.7794878668902303 -0.4835699454743225 2.780254432264752 -0.4820368147252765 2.781787563013797 C -0.4820368147252765 2.781787563013797 -0.4820368147252765 2.777188170766662 -0.4820368147252765 2.767989386272392 C -0.48280338009979973 2.739626467415059 -0.4858696415978896 2.66986901833351 -0.49890125296477317 2.5755814772672414 Z" fill="#002633" transform="matrix(1,0,0,1,0,0)" fill-rule="nonzero"></path></g><g clip-path="url(#SvgjsClipPath1016d9662d69-5f1b-4737-98b1-71aeb0060cb7)"><path d=" M -0.49890125296477317 2.5755814772672414 C -0.49890125296477317 2.5755814772672414 -0.49890125296477317 2.5755814772672414 -0.49890125296477317 2.5755814772672414 C -0.5004343837138183 2.5648495620239267 -0.5019675144628626 2.554117646780611 -0.5035006452119082 2.5433857315372954 C -0.5035006452119082 2.541086035413728 -0.5042672105864305 2.539552904664683 -0.5042672105864305 2.5372532085411157 C -0.5058003413354766 2.525754727923278 -0.5081000374590436 2.5142562473054397 -0.5103997335826107 2.5019912013130794 C -0.5103997335826107 2.5019912013130794 -0.5103997335826107 2.5012246359385575 -0.5103997335826107 2.5012246359385575 C -0.5126994297061778 2.48972615532072 -0.5142325604552229 2.4782276747028815 -0.51653225657879 2.466729194085044 C -0.5172988219533128 2.4644294979614765 -0.5172988219533128 2.461363236463387 -0.518065387327836 2.4590635403398196 C -0.5203650834514031 2.4467984943474583 -0.523431344949493 2.433766882980576 -0.5257310410730605 2.4215018369882166 C -0.5257310410730605 2.420735271613693 -0.5257310410730605 2.419968706239171 -0.5264976064475833 2.4192021408646482 C -0.5287973025711503 2.406937094872288 -0.5318635640692415 2.3946720488799285 -0.5349298255673314 2.382407002887568 C -0.5356963909418537 2.379340741389478 -0.5364629563163765 2.3762744798913875 -0.5372295216908984 2.37397478376782 C -0.5402957831889879 2.3609431724009378 -0.5433620446870777 2.347144995659532 -0.5471948715596908 2.3341133842926496 C -0.5471948715596908 2.333346818918127 -0.5479614369342132 2.332580253543605 -0.5479614369342132 2.331813688169082 C -0.551027698432303 2.3195486421767217 -0.5548605253049153 2.3065170308098386 -0.5586933521775284 2.2934854194429564 C -0.5594599175520516 2.290419157944866 -0.5602264829265735 2.2873528964467758 -0.5617596136756187 2.2835200695741635 C -0.5655924405482309 2.2697218928327585 -0.5701918327953659 2.2559237160913526 -0.574024659667979 2.2421255393499484 C -0.574024659667979 2.2413589739754247 -0.5747912250425009 2.23982584322638 -0.5747912250425009 2.239059277851858 C -0.578624051915114 2.226027666484976 -0.5832234441622495 2.2129960551180927 -0.5878228364093845 2.1999644437512096 C -0.5893559671584296 2.1961316168785974 -0.5901225325329515 2.193065355380507 -0.5916556632819967 2.189232528507895 C -0.5962550555291317 2.175434351766489 -0.6016210131507891 2.160869609650562 -0.6069869707724473 2.1463048675346332 C -0.6077535361469701 2.1455383021601113 -0.6077535361469701 2.1440051714110657 -0.608520101521492 2.143238606036544 C -0.6138860591431503 2.1302069946696616 -0.6184854513902849 2.1164088179282556 -0.6238514090119427 2.1033772065613734 C -0.6253845397609878 2.099544379688761 -0.626917670510033 2.096478118190671 -0.6284508012590782 2.0926452913180587 C -0.6345833242552583 2.078080549202131 -0.6407158472514385 2.0642823724607258 -0.6468483702476187 2.049717630344797 C -0.6476149356221406 2.048951064970275 -0.6476149356221406 2.0474179342212295 -0.6483815009966638 2.0466513688467076 C -0.6545140239928431 2.0336197574798245 -0.6606465469890241 2.0198215807384194 -0.6667790699852034 2.006789969371537 C -0.6683122007342495 2.002957142498925 -0.6706118968578165 1.999124315626312 -0.6721450276068617 1.9960580541282218 C -0.6790441159775646 1.9814933120122944 -0.6867097697227891 1.9676951352708894 -0.6943754234680144 1.9531303931549615 C -0.6951419888425372 1.9515972624059164 -0.6959085542170604 1.9508306970313931 -0.6959085542170604 1.9492975662823488 C -0.7028076425877625 1.9362659549154657 -0.7104732963329878 1.9232343435485835 -0.7181389500782123 1.9094361668071782 C -0.7204386462017793 1.9056033399345655 -0.7219717769508254 1.9017705130619529 -0.7242714730743924 1.8987042515638628 C -0.7327036921941397 1.8849060748224578 -0.7411359113138882 1.8703413327065304 -0.7495681304336355 1.8565431559651249 C -0.7503346958081574 1.8557765905906023 -0.7511012611826806 1.8542434598415571 -0.7518678265572025 1.8534768944670352 C -0.7603000456769498 1.840445283100152 -0.7687322647966983 1.8274136717332696 -0.7779310492909675 1.8143820603663867 C -0.7802307454145345 1.810549233493774 -0.7825304415381025 1.807482971995684 -0.7855967030361928 1.8036501451230718 C -0.7955620529049852 1.7898519683816663 -0.8047608373992556 1.7760537916402608 -0.8154927526425699 1.7630221802733783 C -0.8162593180170932 1.7622556148988557 -0.817025883391616 1.7614890495243332 -0.817792448766137 1.7599559187752887 C -0.8277577986349294 1.7476908727829281 -0.8377231485037226 1.7346592614160452 -0.847688498372515 1.7223942154236858 C -0.8507547598706053 1.7193279539255957 -0.8530544559941724 1.715495127052983 -0.8561207174922636 1.712428865554893 C -0.8668526327355779 1.6993972541880105 -0.8783511133534163 1.6863656428211273 -0.8898495939712538 1.6733340314542444 C -0.8906161593457758 1.6725674660797218 -0.891382724720299 1.6718009007051995 -0.8921492900948209 1.671034335330677 C -0.9028812053381361 1.6587692893383166 -0.9143796859559741 1.6472708087204786 -0.9266447319483344 1.6350057627281191 C -0.9297109934464238 1.6319395012300288 -0.9327772549445146 1.6288732397319388 -0.9366100818171272 1.625040412859326 C -0.9488751278094871 1.6127753668669658 -0.96190673917637 1.6005103208746059 -0.9749383505432527 1.589011840256768 C -0.9757049159177751 1.5882452748822453 -0.9764714812922977 1.5874787095077232 -0.9772380466668202 1.5874787095077232 C -0.9902696580337027 1.5759802288898854 -1.0033012694005856 1.5652483136465705 -1.0163328807674685 1.554516398403255 C -1.0201657076400812 1.551450136905165 -1.0232319691381708 1.548383875407075 -1.0270647960107835 1.5460841792835074 C -1.041629538126711 1.5345856986656694 -1.0554277148681166 1.5238537834223544 -1.0707590223585666 1.513121868179039 C -1.0715255877330891 1.5123553028045165 -1.0722921531076117 1.5123553028045165 -1.0722921531076117 1.5115887374299941 C -1.0868568952235393 1.5016233875612013 -1.1014216373394674 1.4916580376924087 -1.1167529448299174 1.4816926878236163 C -1.12058577170253 1.4793929917000488 -1.1251851639496653 1.4763267302019587 -1.1290179908222777 1.4740270340783912 C -1.145115863687251 1.4640616842095984 -1.1612137365522235 1.4540963343408058 -1.1780781747917186 1.4448975498465355 C -1.1788447401662412 1.4448975498465355 -1.1788447401662412 1.444130984472013 -1.1796113055407633 1.444130984472013 C -1.1957091784057363 1.4349321999777427 -1.2125736166452314 1.426499980857995 -1.2294380548847266 1.4180677617382476 C -1.2340374471318623 1.41576806561468 -1.2386368393789968 1.4134683694911123 -1.243236231626132 1.4111686733675453 C -1.2608672352401498 1.4027364542477976 -1.2792648042286898 1.3943042351280501 -1.2976623732172305 1.3866385813828248 C -1.2984289385917531 1.3866385813828248 -1.2984289385917531 1.3866385813828248 -1.2991955039662757 1.3858720160083022 C -1.3175930729548158 1.3782063622630771 -1.3359906419433565 1.3713072738923748 -1.3551547763064191 1.3644081855216716 C -1.3597541685535544 1.362875054772627 -1.365120126175212 1.3605753586490594 -1.3697195184223467 1.3590422279000143 C -1.389650218159932 1.352143139529312 -1.4095809178975172 1.3452440511586088 -1.430278183009625 1.3398780935369516 C -1.430278183009625 1.3398780935369516 -1.4310447483841475 1.3398780935369516 -1.4310447483841475 1.3398780935369516 C -1.4517420134962553 1.333745570540771 -1.472439278608363 1.3283796129191137 -1.4939031090949935 1.3237802206719786 C -1.499269066716651 1.3222470899229335 -1.5046350243383086 1.321480524548411 -1.5100009819599665 1.319947393799366 C -1.5314648124465973 1.3153480015522308 -1.5536952083077495 1.3107486093050955 -1.5766921695434248 1.3061492170579605 C -1.6924435410963246 1.2862185173203753 -1.8104946087727916 1.2869850826948976 -1.9262459803256908 1.3023163901853478 C -1.9331450686963936 1.3030829555598709 -1.9400441570670963 1.3038495209343928 -1.9469432454377986 1.305382651683438 C -1.9469432454377986 1.305382651683438 -1.9477098108123216 1.305382651683438 -1.9477098108123216 1.305382651683438 C -1.9883377756620146 1.310748609305095 -2.0366313942569327 1.3184142630503204 -2.0887578397244635 1.3245467860465006 C -2.0887578397244635 1.3245467860465006 -2.0895244050989863 1.3245467860465006 -2.0895244050989863 1.3245467860465006 C -2.097956624218734 1.3253133514210231 -2.107155408713004 1.3268464821700683 -2.1163541932072745 1.3276130475445909 C -2.1163541932072745 1.3276130475445909 -2.117120758581797 1.3276130475445909 -2.117120758581797 1.3276130475445909 C -2.1263195430760673 1.3283796129191132 -2.134751762195815 1.3299127436681584 -2.1439505466900846 1.3306793090426805 C -2.1447171120646074 1.3306793090426805 -2.1447171120646074 1.3306793090426805 -2.1454836774391297 1.3306793090426805 C -2.1546824619333997 1.3314458744172029 -2.16388124642767 1.332979005166248 -2.1730800309219402 1.3337455705407706 C -2.173846596296463 1.3337455705407706 -2.173846596296463 1.3337455705407706 -2.1746131616709854 1.3337455705407706 C -2.1838119461652554 1.334512135915293 -2.1937772960340483 1.335278701289815 -2.202976080528318 1.336045266664338 C -2.202976080528318 1.336045266664338 -2.203742645902841 1.336045266664338 -2.203742645902841 1.336045266664338 C -2.2137079957716335 1.3368118320388607 -2.2236733456404263 1.3375783974133828 -2.2336386955092187 1.3383449627879056 C -2.2336386955092187 1.3383449627879056 -2.2336386955092187 1.3383449627879056 -2.2336386955092187 1.3383449627879056 C -2.256635656744894 1.3398780935369508 -2.2796326179805693 1.3414112242859952 -2.3033961445907676 1.3421777896605183 C -2.4889049652252155 1.3498434434057436 -2.697410747095339 1.332979005166248 -2.8775536101081296 1.2417577255980692 C -2.8775536101081296 1.2417577255980692 -2.8775536101081296 1.2417577255980692 -2.8775536101081296 1.2417577255980692 C -2.8767870447336072 1.2425242909725915 -2.8767870447336072 1.2432908563471141 -2.8760204793590844 1.2440574217216367 C -2.7786666767947255 1.4264999808579943 -2.6123219905233404 1.5606489213994343 -2.4176143853946224 1.6204410206121906 C -2.383118943541109 1.6311729358555056 -2.348623501687596 1.6396051549752533 -2.312594929085038 1.6449711125969106 C -2.225973041763994 1.658769289338316 -2.1232532815779774 1.6672015084580634 -2.0036690831524653 1.6672015084580634 C -1.732304940571496 1.6664349430835408 -1.483171193851679 1.714728561678459 -1.2363371432554306 1.8243474102351787 C -0.985670265786569 1.9362659549154653 -0.7909626606578501 2.127907298546094 -0.6322836281316913 2.347144995659532 C -0.5809237480386811 2.4184355754901263 -0.5379960870654208 2.4958586783168997 -0.49890125296477317 2.5755814772672414 L -0.49890125296477317 2.5755814772672414 L -0.49890125296477317 2.5755814772672414 Z" fill="#1ba904" transform="matrix(1,0,0,1,0,0)" fill-rule="nonzero"></path></g></g></g><defs><clipPath id="SvgjsClipPath1017"><path d=" M -2.9485439088363727 -0.08056754545326483 h 2.548543908836373 v 3.46248509090653 h -2.548543908836373 Z"></path></clipPath><clipPath id="SvgjsClipPath1016d9662d69-5f1b-4737-98b1-71aeb0060cb7"><path d=" M -2.9485439088363727 -0.08056754545326483 L -0.3999999999999999 -0.08056754545326483 L -0.3999999999999999 3.3819175454532653 L -2.9485439088363727 3.3819175454532653 Z"></path></clipPath></defs></svg>