<svg xmlns="http://www.w3.org/2000/svg" version="1.1" xmlns:xlink="http://www.w3.org/1999/xlink" xmlns:svgjs="http://svgjs.dev/svgjs" viewBox="0 0 16.328748735323547 5.152244228605702"><g transform="matrix(1,0,0,1,3.8435277016191067,0.8242533643028513)"><g><path d=" M 0.033 0.5324999999999999 Q 0.033 0.43499999999999983 0.06975 0.34124999999999983 Q 0.1065 0.24749999999999983 0.177 0.17099999999999982 Q 0.2475 0.0944999999999998 0.34875 0.04874999999999985 Q 0.45 0.0029999999999998916 0.5775 0.0029999999999998916 Q 0.7305 0.0029999999999998916 0.8445 0.06674999999999986 Q 0.9585 0.13049999999999984 1.014 0.23549999999999982 L 0.7905 0.39449999999999985 Q 0.771 0.34199999999999986 0.7342500000000001 0.3134999999999998 Q 0.6975 0.2849999999999998 0.65475 0.2737499999999998 Q 0.612 0.26249999999999984 0.5715 0.26249999999999984 Q 0.5085000000000001 0.26249999999999984 0.46275 0.2872499999999998 Q 0.417 0.31199999999999983 0.38775 0.3524999999999998 Q 0.3585 0.3929999999999998 0.34425 0.4424999999999998 Q 0.33 0.4919999999999999 0.33 0.5414999999999999 Q 0.33 0.5969999999999998 0.34650000000000003 0.6479999999999999 Q 0.363 0.6989999999999998 0.3945 0.7387499999999998 Q 0.426 0.7784999999999999 0.47175 0.8009999999999998 Q 0.5175 0.8234999999999999 0.5745 0.8234999999999999 Q 0.615 0.8234999999999999 0.657 0.8107499999999999 Q 0.6990000000000001 0.7979999999999998 0.7335 0.7694999999999999 Q 0.768 0.7409999999999999 0.786 0.6929999999999998 L 1.0245 0.8354999999999998 Q 0.993 0.9134999999999999 0.9195 0.9689999999999999 Q 0.846 1.0244999999999997 0.753 1.0537499999999997 Q 0.66 1.0829999999999997 0.5685 1.0829999999999997 Q 0.45 1.0829999999999997 0.35175 1.03575 Q 0.2535 0.9884999999999998 0.18225 0.9097499999999998 Q 0.111 0.8309999999999998 0.07200000000000001 0.7327499999999998 Q 0.033 0.6344999999999998 0.033 0.5324999999999999 M 1.1324685058593749 1.0739999999999998 L 1.1324685058593749 0.008999999999999897 L 1.621468505859375 0.008999999999999897 Q 1.6994685058593748 0.008999999999999897 1.765468505859375 0.04049999999999976 Q 1.831468505859375 0.07199999999999984 1.879468505859375 0.12524999999999986 Q 1.927468505859375 0.17849999999999977 1.9537185058593751 0.24449999999999983 Q 1.979968505859375 0.3104999999999998 1.979968505859375 0.3779999999999998 Q 1.979968505859375 0.4394999999999998 1.961968505859375 0.49649999999999983 Q 1.943968505859375 0.5534999999999999 1.909468505859375 0.6007499999999999 Q 1.8749685058593748 0.6479999999999999 1.826968505859375 0.6824999999999999 L 2.0519685058593753 1.0739999999999998 L 1.7309685058593751 1.0739999999999998 L 1.5434685058593751 0.7469999999999999 L 1.424968505859375 0.7469999999999999 L 1.424968505859375 1.0739999999999998 L 1.1324685058593749 1.0739999999999998 M 1.424968505859375 0.4919999999999999 L 1.609468505859375 0.4919999999999999 Q 1.627468505859375 0.4919999999999999 1.643968505859375 0.4784999999999998 Q 1.660468505859375 0.46499999999999986 1.671718505859375 0.4394999999999998 Q 1.682968505859375 0.4139999999999998 1.682968505859375 0.3779999999999998 Q 1.682968505859375 0.3404999999999998 1.670218505859375 0.31574999999999986 Q 1.657468505859375 0.2909999999999998 1.638718505859375 0.27749999999999986 Q 1.619968505859375 0.2639999999999998 1.6019685058593751 0.2639999999999998 L 1.424968505859375 0.2639999999999998 L 1.424968505859375 0.4919999999999999 M 2.3024619140625 0.008999999999999897 L 2.4929619140624997 0.44399999999999984 L 2.6879619140625 0.008999999999999897 L 3.0059619140625 0.008999999999999897 L 2.6384619140625 0.7214999999999998 L 2.6384619140625 1.0739999999999998 L 2.3474619140625 1.0739999999999998 L 2.3474619140625 0.7184999999999999 L 1.9859619140625 0.008999999999999897 L 2.3024619140625 0.008999999999999897 M 3.6839904785156246 0.3569999999999999 Q 3.6839904785156246 0.3569999999999999 3.6584904785156245 0.34199999999999986 Q 3.632990478515625 0.32699999999999985 3.5909904785156246 0.3082499999999998 Q 3.5489904785156248 0.28949999999999987 3.4994904785156247 0.27449999999999986 Q 3.4499904785156246 0.25949999999999984 3.4019904785156245 0.25949999999999984 Q 3.3644904785156244 0.25949999999999984 3.3404904785156244 0.27149999999999985 Q 3.3164904785156244 0.28349999999999986 3.3164904785156244 0.31199999999999983 Q 3.3164904785156244 0.33899999999999986 3.3404904785156244 0.3554999999999998 Q 3.3644904785156244 0.3719999999999998 3.408740478515625 0.38549999999999984 Q 3.4529904785156247 0.3989999999999998 3.514490478515625 0.41849999999999987 Q 3.6134904785156245 0.4484999999999998 3.6854904785156246 0.4874999999999998 Q 3.7574904785156247 0.5264999999999999 3.796490478515625 0.5872499999999998 Q 3.8354904785156245 0.6479999999999999 3.8354904785156245 0.7484999999999998 Q 3.8354904785156245 0.8444999999999998 3.8009904785156245 0.9097499999999998 Q 3.7664904785156246 0.9749999999999999 3.7079904785156246 1.0139999999999998 Q 3.6494904785156246 1.053 3.5774904785156245 1.07025 Q 3.5054904785156245 1.0875 3.4304904785156247 1.0875 Q 3.3539904785156245 1.0875 3.2707404785156244 1.0717499999999998 Q 3.187490478515625 1.0559999999999998 3.1094904785156245 1.0282499999999999 Q 3.0314904785156247 1.0005 2.9669904785156245 0.9629999999999999 L 3.092990478515625 0.7064999999999999 Q 3.092990478515625 0.7064999999999999 3.1229904785156246 0.7244999999999998 Q 3.1529904785156244 0.7424999999999998 3.2024904785156245 0.7649999999999999 Q 3.2519904785156246 0.7874999999999999 3.3127404785156247 0.8054999999999999 Q 3.373490478515625 0.8234999999999999 3.4349904785156244 0.8234999999999999 Q 3.4829904785156245 0.8234999999999999 3.5017404785156248 0.8107499999999999 Q 3.5204904785156246 0.7979999999999998 3.5204904785156246 0.7769999999999999 Q 3.5204904785156246 0.7454999999999998 3.4874904785156247 0.7282499999999998 Q 3.4544904785156247 0.7109999999999999 3.4012404785156245 0.6952499999999998 Q 3.3479904785156247 0.6794999999999998 3.2834904785156245 0.6584999999999999 Q 3.1904904785156245 0.6269999999999998 3.1304904785156245 0.5872499999999998 Q 3.070490478515625 0.5474999999999999 3.0419904785156247 0.4927499999999998 Q 3.0134904785156245 0.43799999999999983 3.0134904785156245 0.3599999999999999 Q 3.0134904785156245 0.24149999999999983 3.068990478515625 0.1619999999999998 Q 3.1244904785156247 0.0824999999999998 3.2152404785156246 0.04124999999999979 Q 3.3059904785156244 -2.220446049250313e-16 3.4109904785156244 -2.220446049250313e-16 Q 3.4889904785156247 -2.220446049250313e-16 3.561740478515625 0.018749999999999822 Q 3.634490478515625 0.03749999999999987 3.6982404785156247 0.06449999999999978 Q 3.7619904785156244 0.0914999999999998 3.8099904785156244 0.11549999999999983 L 3.6839904785156246 0.3569999999999999 M 4.7984970703125 0.2639999999999998 L 4.4924970703125 0.2639999999999998 L 4.4924970703125 1.0739999999999998 L 4.1999970703125 1.0739999999999998 L 4.1999970703125 0.2639999999999998 L 3.8924970703125 0.2639999999999998 L 3.8924970703125 0.008999999999999897 L 4.7984970703125 0.008999999999999897 L 4.7984970703125 0.2639999999999998 M 5.058028564453125 0.008999999999999897 L 5.385028564453125 0.008999999999999897 L 5.724028564453125 1.0739999999999998 L 5.427028564453125 1.0739999999999998 L 5.362528564453125 0.8654999999999998 L 5.079028564453125 0.8654999999999998 L 5.016028564453125 1.0739999999999998 L 4.717528564453125 1.0739999999999998 L 5.058028564453125 0.008999999999999897 M 5.316028564453125 0.6704999999999999 L 5.221528564453125 0.2954999999999999 L 5.122528564453125 0.6704999999999999 L 5.316028564453125 0.6704999999999999 M 5.817016845703125 1.0739999999999998 L 5.817016845703125 0.008999999999999897 L 6.1095168457031255 0.008999999999999897 L 6.1095168457031255 0.8189999999999998 L 6.592516845703125 0.8189999999999998 L 6.592516845703125 1.0739999999999998 L 5.817016845703125 1.0739999999999998 M 6.939025634765626 0.5324999999999999 Q 6.939025634765626 0.43499999999999983 6.9757756347656255 0.34124999999999983 Q 7.012525634765625 0.24749999999999983 7.083025634765625 0.17099999999999982 Q 7.153525634765625 0.0944999999999998 7.254775634765625 0.04874999999999985 Q 7.356025634765626 0.0029999999999998916 7.483525634765625 0.0029999999999998916 Q 7.636525634765626 0.0029999999999998916 7.7505256347656255 0.06674999999999986 Q 7.864525634765625 0.13049999999999984 7.920025634765626 0.23549999999999982 L 7.696525634765625 0.39449999999999985 Q 7.677025634765625 0.34199999999999986 7.640275634765626 0.3134999999999998 Q 7.603525634765625 0.2849999999999998 7.560775634765625 0.2737499999999998 Q 7.518025634765626 0.26249999999999984 7.477525634765626 0.26249999999999984 Q 7.414525634765625 0.26249999999999984 7.368775634765625 0.2872499999999998 Q 7.323025634765625 0.31199999999999983 7.293775634765625 0.3524999999999998 Q 7.264525634765626 0.3929999999999998 7.250275634765625 0.4424999999999998 Q 7.2360256347656255 0.4919999999999999 7.2360256347656255 0.5414999999999999 Q 7.2360256347656255 0.5969999999999998 7.252525634765625 0.6479999999999999 Q 7.269025634765626 0.6989999999999998 7.300525634765625 0.7387499999999998 Q 7.332025634765626 0.7784999999999999 7.377775634765626 0.8009999999999998 Q 7.4235256347656255 0.8234999999999999 7.480525634765625 0.8234999999999999 Q 7.521025634765626 0.8234999999999999 7.5630256347656255 0.8107499999999999 Q 7.605025634765625 0.7979999999999998 7.639525634765626 0.7694999999999999 Q 7.674025634765625 0.7409999999999999 7.692025634765626 0.6929999999999998 L 7.930525634765625 0.8354999999999998 Q 7.899025634765626 0.9134999999999999 7.825525634765626 0.9689999999999999 Q 7.752025634765626 1.0244999999999997 7.659025634765626 1.0537499999999997 Q 7.566025634765626 1.0829999999999997 7.474525634765626 1.0829999999999997 Q 7.356025634765626 1.0829999999999997 7.2577756347656255 1.03575 Q 7.159525634765625 0.9884999999999998 7.088275634765625 0.9097499999999998 Q 7.017025634765625 0.8309999999999998 6.9780256347656255 0.7327499999999998 Q 6.939025634765626 0.6344999999999998 6.939025634765626 0.5324999999999999 M 8.038494140625001 1.0739999999999998 L 8.038494140625001 0.008999999999999897 L 8.330994140625 0.008999999999999897 L 8.330994140625 0.8189999999999998 L 8.813994140625 0.8189999999999998 L 8.813994140625 1.0739999999999998 L 8.038494140625001 1.0739999999999998 M 9.679527099609375 0.8189999999999998 L 9.679527099609375 1.0739999999999998 L 8.920527099609375 1.0739999999999998 L 8.920527099609375 0.008999999999999897 L 9.666027099609375 0.008999999999999897 L 9.666027099609375 0.2639999999999998 L 9.213027099609375 0.2639999999999998 L 9.213027099609375 0.4139999999999998 L 9.600027099609376 0.4139999999999998 L 9.600027099609376 0.6509999999999998 L 9.213027099609375 0.6509999999999998 L 9.213027099609375 0.8189999999999998 L 9.679527099609375 0.8189999999999998 M 10.06650439453125 0.008999999999999897 L 10.39350439453125 0.008999999999999897 L 10.73250439453125 1.0739999999999998 L 10.43550439453125 1.0739999999999998 L 10.37100439453125 0.8654999999999998 L 10.08750439453125 0.8654999999999998 L 10.02450439453125 1.0739999999999998 L 9.72600439453125 1.0739999999999998 L 10.06650439453125 0.008999999999999897 M 10.32450439453125 0.6704999999999999 L 10.23000439453125 0.2954999999999999 L 10.13100439453125 0.6704999999999999 L 10.32450439453125 0.6704999999999999 M 10.82549267578125 1.0739999999999998 L 10.82549267578125 0.008999999999999897 L 11.314492675781251 0.008999999999999897 Q 11.39249267578125 0.008999999999999897 11.458492675781251 0.04049999999999976 Q 11.52449267578125 0.07199999999999984 11.57249267578125 0.12524999999999986 Q 11.62049267578125 0.17849999999999977 11.646742675781251 0.24449999999999983 Q 11.67299267578125 0.3104999999999998 11.67299267578125 0.3779999999999998 Q 11.67299267578125 0.4394999999999998 11.65499267578125 0.49649999999999983 Q 11.63699267578125 0.5534999999999999 11.60249267578125 0.6007499999999999 Q 11.56799267578125 0.6479999999999999 11.51999267578125 0.6824999999999999 L 11.744992675781251 1.0739999999999998 L 11.42399267578125 1.0739999999999998 L 11.23649267578125 0.7469999999999999 L 11.11799267578125 0.7469999999999999 L 11.11799267578125 1.0739999999999998 L 10.82549267578125 1.0739999999999998 M 11.11799267578125 0.4919999999999999 L 11.30249267578125 0.4919999999999999 Q 11.32049267578125 0.4919999999999999 11.33699267578125 0.4784999999999998 Q 11.35349267578125 0.46499999999999986 11.364742675781251 0.4394999999999998 Q 11.37599267578125 0.4139999999999998 11.37599267578125 0.3779999999999998 Q 11.37599267578125 0.3404999999999998 11.363242675781251 0.31574999999999986 Q 11.35049267578125 0.2909999999999998 11.33174267578125 0.27749999999999986 Q 11.312992675781251 0.2639999999999998 11.29499267578125 0.2639999999999998 L 11.11799267578125 0.2639999999999998 L 11.11799267578125 0.4919999999999999 M 0.7365 1.8944999999999994 Q 0.7365 1.8944999999999994 0.711 1.8794999999999995 Q 0.6855 1.8644999999999996 0.6435 1.8457499999999993 Q 0.6015 1.8269999999999995 0.552 1.8119999999999994 Q 0.5025000000000001 1.7969999999999995 0.4545 1.7969999999999995 Q 0.417 1.7969999999999995 0.393 1.8089999999999995 Q 0.369 1.8209999999999995 0.369 1.8494999999999995 Q 0.369 1.8764999999999996 0.393 1.8929999999999993 Q 0.417 1.9094999999999995 0.46125 1.9229999999999996 Q 0.5055000000000001 1.9364999999999994 0.5670000000000001 1.9559999999999995 Q 0.666 1.9859999999999993 0.738 2.0249999999999995 Q 0.81 2.0639999999999996 0.849 2.1247499999999997 Q 0.888 2.1854999999999993 0.888 2.2859999999999996 Q 0.888 2.3819999999999997 0.8535 2.4472499999999995 Q 0.8190000000000001 2.5124999999999993 0.7605000000000001 2.5514999999999994 Q 0.7020000000000001 2.5904999999999996 0.63 2.6077499999999993 Q 0.558 2.6249999999999996 0.483 2.6249999999999996 Q 0.40650000000000003 2.6249999999999996 0.32325 2.6092499999999994 Q 0.24 2.5934999999999997 0.162 2.5657499999999995 Q 0.084 2.5379999999999994 0.0195 2.5004999999999993 L 0.1455 2.2439999999999993 Q 0.1455 2.2439999999999993 0.17550000000000002 2.2619999999999996 Q 0.20550000000000002 2.2799999999999994 0.255 2.3024999999999993 Q 0.3045 2.3249999999999993 0.36525 2.3429999999999995 Q 0.426 2.3609999999999993 0.4875 2.3609999999999993 Q 0.5355 2.3609999999999993 0.55425 2.3482499999999993 Q 0.5730000000000001 2.3354999999999997 0.5730000000000001 2.3144999999999993 Q 0.5730000000000001 2.2829999999999995 0.54 2.2657499999999997 Q 0.507 2.2484999999999995 0.45375 2.2327499999999993 Q 0.4005 2.2169999999999996 0.336 2.1959999999999993 Q 0.243 2.1644999999999994 0.183 2.1247499999999997 Q 0.123 2.0849999999999995 0.0945 2.0302499999999997 Q 0.066 1.9754999999999994 0.066 1.8974999999999995 Q 0.066 1.7789999999999995 0.1215 1.6994999999999996 Q 0.177 1.6199999999999994 0.26775 1.5787499999999994 Q 0.3585 1.5374999999999994 0.4635 1.5374999999999994 Q 0.5415 1.5374999999999994 0.61425 1.5562499999999995 Q 0.687 1.5749999999999995 0.75075 1.6019999999999994 Q 0.8145 1.6289999999999996 0.8625 1.6529999999999996 L 0.7365 1.8944999999999994 M 1.501506591796875 2.6204999999999994 Q 1.380006591796875 2.6204999999999994 1.281006591796875 2.5747499999999994 Q 1.182006591796875 2.5289999999999995 1.110756591796875 2.4517499999999997 Q 1.0395065917968749 2.3744999999999994 1.001256591796875 2.2777499999999993 Q 0.963006591796875 2.1809999999999996 0.963006591796875 2.0774999999999997 Q 0.963006591796875 1.9709999999999996 1.0035065917968748 1.8749999999999996 Q 1.044006591796875 1.7789999999999995 1.116756591796875 1.7032499999999995 Q 1.189506591796875 1.6274999999999995 1.289256591796875 1.5839999999999994 Q 1.389006591796875 1.5404999999999995 1.5075065917968749 1.5404999999999995 Q 1.629006591796875 1.5404999999999995 1.728006591796875 1.5862499999999995 Q 1.827006591796875 1.6319999999999995 1.897506591796875 1.7099999999999995 Q 1.968006591796875 1.7879999999999994 2.006256591796875 1.8847499999999995 Q 2.0445065917968748 1.9814999999999996 2.0445065917968748 2.0834999999999995 Q 2.0445065917968748 2.1884999999999994 2.004756591796875 2.2844999999999995 Q 1.9650065917968749 2.3804999999999996 1.892256591796875 2.4562499999999994 Q 1.8195065917968751 2.5319999999999996 1.720506591796875 2.5762499999999995 Q 1.621506591796875 2.6204999999999994 1.501506591796875 2.6204999999999994 M 1.260006591796875 2.0804999999999993 Q 1.260006591796875 2.1344999999999996 1.275006591796875 2.1847499999999993 Q 1.290006591796875 2.2349999999999994 1.3200065917968749 2.2747499999999996 Q 1.3500065917968749 2.3144999999999993 1.395756591796875 2.3377499999999993 Q 1.441506591796875 2.3609999999999993 1.504506591796875 2.3609999999999993 Q 1.567506591796875 2.3609999999999993 1.614006591796875 2.3369999999999993 Q 1.6605065917968749 2.3129999999999997 1.689756591796875 2.2717499999999995 Q 1.7190065917968749 2.2304999999999993 1.733256591796875 2.1802499999999996 Q 1.747506591796875 2.1299999999999994 1.747506591796875 2.0774999999999997 Q 1.747506591796875 2.0234999999999994 1.732506591796875 1.9739999999999993 Q 1.7175065917968748 1.9244999999999994 1.687506591796875 1.8847499999999995 Q 1.657506591796875 1.8449999999999993 1.611006591796875 1.8224999999999993 Q 1.564506591796875 1.7999999999999994 1.5030065917968751 1.7999999999999994 Q 1.440006591796875 1.7999999999999994 1.394256591796875 1.8239999999999994 Q 1.348506591796875 1.8479999999999994 1.318506591796875 1.8877499999999996 Q 1.288506591796875 1.9274999999999993 1.274256591796875 1.9777499999999995 Q 1.260006591796875 2.0279999999999996 1.260006591796875 2.0804999999999993 M 2.173528564453125 2.6114999999999995 L 2.173528564453125 1.5464999999999995 L 2.466028564453125 1.5464999999999995 L 2.466028564453125 2.3564999999999996 L 2.949028564453125 2.3564999999999996 L 2.949028564453125 2.6114999999999995 L 2.173528564453125 2.6114999999999995 M 3.5040820312499994 2.6204999999999994 Q 3.3765820312499994 2.6204999999999994 3.2850820312499995 2.5784999999999996 Q 3.1935820312499996 2.5364999999999993 3.1358320312499997 2.4629999999999996 Q 3.0780820312499997 2.3894999999999995 3.0510820312499995 2.2942499999999995 Q 3.0240820312499994 2.1989999999999994 3.0240820312499994 2.0939999999999994 L 3.0240820312499994 1.5464999999999995 L 3.3165820312499994 1.5464999999999995 L 3.3165820312499994 2.0939999999999994 Q 3.3165820312499994 2.1464999999999996 3.32708203125 2.1944999999999997 Q 3.3375820312499997 2.2424999999999997 3.3600820312499997 2.2799999999999994 Q 3.3825820312499997 2.3174999999999994 3.4178320312499997 2.3392499999999994 Q 3.4530820312499997 2.3609999999999993 3.5040820312499994 2.3609999999999993 Q 3.5565820312499996 2.3609999999999993 3.5925820312499996 2.3392499999999994 Q 3.6285820312499997 2.3174999999999994 3.6503320312499996 2.2792499999999993 Q 3.6720820312499995 2.2409999999999997 3.6825820312499995 2.1929999999999996 Q 3.6930820312499995 2.1449999999999996 3.6930820312499995 2.0939999999999994 L 3.6930820312499995 1.5464999999999995 L 3.98558203125 1.5464999999999995 L 3.98558203125 2.0939999999999994 Q 3.98558203125 2.2049999999999996 3.9563320312499997 2.3009999999999993 Q 3.9270820312499994 2.3969999999999994 3.86858203125 2.4689999999999994 Q 3.8100820312499994 2.5409999999999995 3.7193320312499996 2.5807499999999997 Q 3.6285820312499997 2.6204999999999994 3.5040820312499994 2.6204999999999994 M 4.987553466796875 1.8014999999999994 L 4.681553466796875 1.8014999999999994 L 4.681553466796875 2.6114999999999995 L 4.389053466796875 2.6114999999999995 L 4.389053466796875 1.8014999999999994 L 4.0815534667968745 1.8014999999999994 L 4.0815534667968745 1.5464999999999995 L 4.987553466796875 1.5464999999999995 L 4.987553466796875 1.8014999999999994 M 5.098588623046875 2.6114999999999995 L 5.098588623046875 1.5464999999999995 L 5.391088623046875 1.5464999999999995 L 5.391088623046875 2.6114999999999995 L 5.098588623046875 2.6114999999999995 M 6.0586135253906255 2.6204999999999994 Q 5.937113525390625 2.6204999999999994 5.838113525390625 2.5747499999999994 Q 5.739113525390625 2.5289999999999995 5.667863525390625 2.4517499999999997 Q 5.596613525390625 2.3744999999999994 5.558363525390625 2.2777499999999993 Q 5.5201135253906255 2.1809999999999996 5.5201135253906255 2.0774999999999997 Q 5.5201135253906255 1.9709999999999996 5.560613525390625 1.8749999999999996 Q 5.601113525390625 1.7789999999999995 5.673863525390625 1.7032499999999995 Q 5.746613525390625 1.6274999999999995 5.846363525390625 1.5839999999999994 Q 5.946113525390625 1.5404999999999995 6.064613525390625 1.5404999999999995 Q 6.186113525390625 1.5404999999999995 6.285113525390625 1.5862499999999995 Q 6.384113525390625 1.6319999999999995 6.454613525390625 1.7099999999999995 Q 6.525113525390625 1.7879999999999994 6.563363525390625 1.8847499999999995 Q 6.601613525390626 1.9814999999999996 6.601613525390626 2.0834999999999995 Q 6.601613525390626 2.1884999999999994 6.561863525390625 2.2844999999999995 Q 6.522113525390625 2.3804999999999996 6.449363525390625 2.4562499999999994 Q 6.376613525390625 2.5319999999999996 6.277613525390625 2.5762499999999995 Q 6.178613525390626 2.6204999999999994 6.0586135253906255 2.6204999999999994 M 5.817113525390625 2.0804999999999993 Q 5.817113525390625 2.1344999999999996 5.832113525390625 2.1847499999999993 Q 5.8471135253906255 2.2349999999999994 5.877113525390625 2.2747499999999996 Q 5.907113525390625 2.3144999999999993 5.952863525390625 2.3377499999999993 Q 5.998613525390625 2.3609999999999993 6.061613525390625 2.3609999999999993 Q 6.124613525390625 2.3609999999999993 6.171113525390625 2.3369999999999993 Q 6.217613525390625 2.3129999999999997 6.2468635253906255 2.2717499999999995 Q 6.276113525390625 2.2304999999999993 6.290363525390625 2.1802499999999996 Q 6.304613525390625 2.1299999999999994 6.304613525390625 2.0774999999999997 Q 6.304613525390625 2.0234999999999994 6.289613525390625 1.9739999999999993 Q 6.274613525390625 1.9244999999999994 6.244613525390625 1.8847499999999995 Q 6.214613525390625 1.8449999999999993 6.168113525390625 1.8224999999999993 Q 6.121613525390625 1.7999999999999994 6.0601135253906255 1.7999999999999994 Q 5.997113525390625 1.7999999999999994 5.951363525390625 1.8239999999999994 Q 5.905613525390625 1.8479999999999994 5.875613525390625 1.8877499999999996 Q 5.845613525390625 1.9274999999999993 5.831363525390625 1.9777499999999995 Q 5.817113525390625 2.0279999999999996 5.817113525390625 2.0804999999999993 M 7.023135498046876 2.0879999999999996 L 7.023135498046876 2.6114999999999995 L 6.730635498046875 2.6114999999999995 L 6.730635498046875 1.5464999999999995 L 6.958635498046875 1.5464999999999995 L 7.386135498046875 2.0879999999999996 L 7.386135498046875 1.5464999999999995 L 7.678635498046876 1.5464999999999995 L 7.678635498046876 2.6114999999999995 L 7.446135498046876 2.6114999999999995 L 7.023135498046876 2.0879999999999996" fill="#002633" fill-rule="nonzero"></path></g><g><path d=" M 0.28350000000000003 3.5074875 Q 0.2205 3.5074875 0.177 3.4849875 Q 0.1335 3.4624875 0.108 3.4246125 Q 0.0825 3.3867374999999997 0.07087500000000001 3.3387374999999997 Q 0.059250000000000004 3.2907374999999996 0.059250000000000004 3.2397374999999995 L 0.059250000000000004 2.9712375 L 0.111 2.9712375 L 0.111 3.2397374999999995 Q 0.111 3.2809874999999997 0.11962500000000001 3.3207375 Q 0.12825 3.3604874999999996 0.14775 3.3919875 Q 0.16725 3.4234875 0.20025 3.4418624999999996 Q 0.23325 3.4602375 0.28275 3.4602375 Q 0.33375 3.4602375 0.36712500000000003 3.4411124999999996 Q 0.4005 3.4219874999999997 0.419625 3.3904875 Q 0.43875000000000003 3.3589874999999996 0.447 3.3196125 Q 0.45525 3.2802374999999997 0.45525 3.2397374999999995 L 0.45525 2.9712375 L 0.50775 2.9712375 L 0.50775 3.2397374999999995 Q 0.50775 3.2929874999999997 0.49575 3.3417375 Q 0.48375 3.3904875 0.457125 3.4272375 Q 0.4305 3.4639874999999996 0.38775 3.4857375 Q 0.34500000000000003 3.5074875 0.28350000000000003 3.5074875 M 0.6866286621093749 3.0679874999999996 L 0.6866286621093749 3.5037374999999997 L 0.6341286621093749 3.5037374999999997 L 0.6341286621093749 2.9712375 L 0.6776286621093749 2.9712375 L 1.027128662109375 3.4152375 L 1.027128662109375 2.9719874999999996 L 1.079628662109375 2.9719874999999996 L 1.079628662109375 3.5037374999999997 L 1.0308786621093748 3.5037374999999997 L 0.6866286621093749 3.0679874999999996 M 1.214233154296875 3.5037374999999997 L 1.214233154296875 2.9712375 L 1.266733154296875 2.9712375 L 1.266733154296875 3.4572374999999997 L 1.5742331542968748 3.4572374999999997 L 1.5742331542968748 3.5037374999999997 L 1.214233154296875 3.5037374999999997 M 1.8453702392578122 3.5074875 Q 1.7891202392578123 3.5074875 1.743370239257812 3.4849875 Q 1.6976202392578121 3.4624875 1.6646202392578122 3.4238625 Q 1.631620239257812 3.3852374999999997 1.6136202392578123 3.3368624999999996 Q 1.5956202392578123 3.2884874999999996 1.5956202392578123 3.2374875 Q 1.5956202392578123 3.1842374999999996 1.614370239257812 3.1358624999999996 Q 1.6331202392578121 3.0874875 1.667245239257812 3.0496125 Q 1.7013702392578123 3.0117374999999997 1.7471202392578122 2.9896125 Q 1.7928702392578122 2.9674875 1.8461202392578122 2.9674875 Q 1.9023702392578121 2.9674875 1.948120239257812 2.9907375 Q 1.9938702392578123 3.0139875 2.0264952392578124 3.0529874999999995 Q 2.0591202392578123 3.0919874999999997 2.077120239257812 3.1399874999999997 Q 2.0951202392578123 3.1879874999999998 2.0951202392578123 3.2382375 Q 2.0951202392578123 3.2914874999999997 2.076370239257812 3.3398624999999997 Q 2.0576202392578122 3.3882375 2.0238702392578123 3.4261125 Q 1.9901202392578121 3.4639874999999996 1.9443702392578122 3.4857375 Q 1.8986202392578122 3.5074875 1.8453702392578122 3.5074875 M 1.6481202392578123 3.2374875 Q 1.6481202392578123 3.2809874999999997 1.6623702392578121 3.3211125 Q 1.6766202392578122 3.3612374999999997 1.7028702392578121 3.3923625 Q 1.7291202392578122 3.4234875 1.7654952392578123 3.4418624999999996 Q 1.8018702392578123 3.4602375 1.8453702392578122 3.4602375 Q 1.8911202392578121 3.4602375 1.9274952392578122 3.4411124999999996 Q 1.9638702392578122 3.4219874999999997 1.9897452392578123 3.3901125 Q 2.015620239257812 3.3582374999999995 2.029120239257812 3.3184875 Q 2.042620239257812 3.2787374999999996 2.042620239257812 3.2374875 Q 2.042620239257812 3.1939874999999995 2.028370239257812 3.1542375 Q 2.0141202392578124 3.1144874999999996 1.9874952392578122 3.0829874999999998 Q 1.9608702392578121 3.0514875 1.924870239257812 3.0334874999999997 Q 1.888870239257812 3.0154875 1.8453702392578122 3.0154875 Q 1.8003702392578123 3.0154875 1.7639952392578122 3.0342374999999997 Q 1.7276202392578122 3.0529874999999995 1.701745239257812 3.0848625 Q 1.6758702392578122 3.1167374999999997 1.6619952392578121 3.1564875 Q 1.6481202392578123 3.1962374999999996 1.6481202392578123 3.2374875 M 2.1599776611328116 3.2337374999999997 Q 2.1599776611328116 3.1849874999999996 2.176852661132812 3.1381124999999996 Q 2.1937276611328116 3.0912374999999996 2.225977661132812 3.0526124999999995 Q 2.258227661132812 3.0139875 2.305477661132812 2.9911125 Q 2.352727661132812 2.9682375 2.412727661132812 2.9682375 Q 2.483977661132812 2.9682375 2.5346026611328116 3.0008624999999998 Q 2.5852276611328118 3.0334874999999997 2.609227661132812 3.0844875 L 2.5679776611328116 3.1099875 Q 2.550727661132812 3.0747375 2.5244776611328117 3.0541124999999996 Q 2.4982276611328116 3.0334874999999997 2.468602661132812 3.0244874999999998 Q 2.438977661132812 3.0154875 2.409727661132812 3.0154875 Q 2.3617276611328117 3.0154875 2.3249776611328117 3.0346124999999997 Q 2.2882276611328116 3.0537374999999995 2.2631026611328116 3.0856125 Q 2.237977661132812 3.1174874999999997 2.225227661132812 3.1568625 Q 2.212477661132812 3.1962374999999996 2.212477661132812 3.2367375 Q 2.212477661132812 3.2809874999999997 2.227477661132812 3.3214875 Q 2.2424776611328117 3.3619874999999997 2.269477661132812 3.3931124999999995 Q 2.296477661132812 3.4242375 2.332852661132812 3.4426124999999996 Q 2.3692276611328116 3.4609875 2.411977661132812 3.4609875 Q 2.4419776611328117 3.4609875 2.473477661132812 3.4504875 Q 2.504977661132812 3.4399874999999995 2.532352661132812 3.4182374999999996 Q 2.5597276611328117 3.3964874999999997 2.576227661132812 3.3619874999999997 L 2.6197276611328117 3.3844874999999996 Q 2.603227661132812 3.4242375 2.5687276611328116 3.4519874999999995 Q 2.5342276611328116 3.4797374999999997 2.491852661132812 3.4939875 Q 2.449477661132812 3.5082375 2.4089776611328118 3.5082375 Q 2.354227661132812 3.5082375 2.308477661132812 3.4846125 Q 2.262727661132812 3.4609875 2.2293526611328116 3.4216124999999997 Q 2.1959776611328117 3.3822374999999996 2.177977661132812 3.3331125 Q 2.1599776611328116 3.2839875 2.1599776611328116 3.2337374999999997 M 2.710833251953124 3.5037374999999997 L 2.710833251953124 2.9719874999999996 L 2.7633332519531244 2.9719874999999996 L 2.7633332519531244 3.2809874999999997 L 3.0565832519531244 2.9712375 L 3.1143332519531244 2.9712375 L 2.896833251953124 3.2052375 L 3.1255832519531244 3.5037374999999997 L 3.0663332519531243 3.5037374999999997 L 2.863083251953124 3.2367375 L 2.7633332519531244 3.3402374999999997 L 2.7633332519531244 3.5037374999999997 L 2.710833251953124 3.5037374999999997 M 3.1942122802734367 3.5037374999999997 L 3.1942122802734367 2.9712375 L 3.246712280273437 2.9712375 L 3.246712280273437 3.5037374999999997 L 3.1942122802734367 3.5037374999999997 M 3.4338266601562495 3.0679874999999996 L 3.4338266601562495 3.5037374999999997 L 3.3813266601562493 3.5037374999999997 L 3.3813266601562493 2.9712375 L 3.4248266601562496 2.9712375 L 3.7743266601562495 3.4152375 L 3.7743266601562495 2.9719874999999996 L 3.8268266601562493 2.9719874999999996 L 3.8268266601562493 3.5037374999999997 L 3.778076660156249 3.5037374999999997 L 3.4338266601562495 3.0679874999999996 M 4.175181152343749 3.5074875 Q 4.121931152343749 3.5074875 4.076181152343749 3.4846125 Q 4.030431152343749 3.4617375 3.9966811523437493 3.4227374999999998 Q 3.9629311523437494 3.3837374999999996 3.9445561523437496 3.3357374999999996 Q 3.9261811523437493 3.2877374999999995 3.9261811523437493 3.2367375 Q 3.9261811523437493 3.1827374999999996 3.9445561523437496 3.1343625 Q 3.9629311523437494 3.0859875 3.9959311523437493 3.0484875 Q 4.028931152343749 3.0109874999999997 4.073931152343749 2.9892374999999998 Q 4.118931152343749 2.9674875 4.172181152343749 2.9674875 Q 4.25093115234375 2.9674875 4.30043115234375 2.9997374999999997 Q 4.34993115234375 3.0319874999999996 4.375431152343749 3.0837375 L 4.334931152343749 3.1107375 Q 4.309431152343749 3.0612375 4.266681152343749 3.0379875 Q 4.2239311523437495 3.0147375 4.171431152343749 3.0147375 Q 4.127181152343749 3.0147375 4.09155615234375 3.0334874999999997 Q 4.055931152343749 3.0522374999999995 4.030431152343749 3.0837375 Q 4.004931152343749 3.1152374999999997 3.9918061523437496 3.1549875 Q 3.9786811523437495 3.1947374999999996 3.9786811523437495 3.2374875 Q 3.9786811523437495 3.2824875 3.9936811523437497 3.3226124999999995 Q 4.008681152343749 3.3627374999999997 4.0364311523437495 3.3938624999999996 Q 4.06418115234375 3.4249875 4.100556152343749 3.4426124999999996 Q 4.13693115234375 3.4602375 4.17893115234375 3.4602375 Q 4.22768115234375 3.4602375 4.2711811523437495 3.4358625 Q 4.314681152343749 3.4114875 4.354431152343749 3.3604874999999996 L 4.354431152343749 3.4159874999999995 Q 4.27868115234375 3.5074875 4.175181152343749 3.5074875 M 4.34618115234375 3.2824875 L 4.22768115234375 3.2824875 L 4.22768115234375 3.2419874999999996 L 4.39043115234375 3.2419874999999996 L 4.39043115234375 3.5037374999999997 L 4.34618115234375 3.5037374999999997 L 4.34618115234375 3.2824875 M 4.691937377929687 3.5037374999999997 L 4.691937377929687 2.9712375 L 4.912437377929687 2.9712375 Q 4.946937377929687 2.9712375 4.975812377929687 2.9854874999999996 Q 5.004687377929687 2.9997374999999997 5.025687377929687 3.0241124999999998 Q 5.046687377929687 3.0484875 5.058687377929687 3.0781124999999996 Q 5.070687377929687 3.1077375 5.070687377929687 3.1384874999999997 Q 5.070687377929687 3.1819875 5.051562377929687 3.2206124999999997 Q 5.032437377929687 3.2592375 4.997937377929687 3.2832375 Q 4.963437377929687 3.3072375 4.916937377929687 3.3072375 L 4.744437377929687 3.3072375 L 4.744437377929687 3.5037374999999997 L 4.691937377929687 3.5037374999999997 M 4.744437377929687 3.2607375 L 4.914687377929687 3.2607375 Q 4.946187377929687 3.2607375 4.969437377929687 3.2434874999999996 Q 4.992687377929687 3.2262375 5.005437377929687 3.1984874999999997 Q 5.018187377929687 3.1707374999999995 5.018187377929687 3.1384874999999997 Q 5.018187377929687 3.1054874999999997 5.003187377929687 3.0777374999999996 Q 4.9881873779296875 3.0499875 4.963812377929687 3.0338624999999997 Q 4.939437377929687 3.0177375 4.910187377929687 3.0177375 L 4.744437377929687 3.0177375 L 4.744437377929687 3.2607375 M 5.3763193359375 3.5074875 Q 5.3133193359375 3.5074875 5.269819335937499 3.4849875 Q 5.226319335937499 3.4624875 5.200819335937499 3.4246125 Q 5.175319335937499 3.3867374999999997 5.1636943359375 3.3387374999999997 Q 5.152069335937499 3.2907374999999996 5.152069335937499 3.2397374999999995 L 5.152069335937499 2.9712375 L 5.203819335937499 2.9712375 L 5.203819335937499 3.2397374999999995 Q 5.203819335937499 3.2809874999999997 5.2124443359375 3.3207375 Q 5.2210693359375 3.3604874999999996 5.2405693359375 3.3919875 Q 5.2600693359375 3.4234875 5.293069335937499 3.4418624999999996 Q 5.3260693359374995 3.4602375 5.3755693359375 3.4602375 Q 5.4265693359375 3.4602375 5.459944335937499 3.4411124999999996 Q 5.4933193359375 3.4219874999999997 5.5124443359374995 3.3904875 Q 5.531569335937499 3.3589874999999996 5.5398193359375 3.3196125 Q 5.5480693359375 3.2802374999999997 5.5480693359375 3.2397374999999995 L 5.5480693359375 2.9712375 L 5.600569335937499 2.9712375 L 5.600569335937499 3.2397374999999995 Q 5.600569335937499 3.2929874999999997 5.5885693359375 3.3417375 Q 5.576569335937499 3.3904875 5.5499443359375 3.4272375 Q 5.5233193359375 3.4639874999999996 5.480569335937499 3.4857375 Q 5.437819335937499 3.5074875 5.3763193359375 3.5074875 M 5.7269479980468745 3.5037374999999997 L 5.7269479980468745 2.9712375 L 5.951947998046875 2.9712375 Q 5.9864479980468746 2.9712375 6.014947998046875 2.9854874999999996 Q 6.043447998046875 2.9997374999999997 6.064822998046875 3.0241124999999998 Q 6.086197998046875 3.0484875 6.097822998046874 3.0781124999999996 Q 6.109447998046875 3.1077375 6.109447998046875 3.1384874999999997 Q 6.109447998046875 3.1767374999999998 6.094822998046874 3.2104874999999997 Q 6.0801979980468746 3.2442374999999997 6.053572998046874 3.2674874999999997 Q 6.026947998046874 3.2907374999999996 5.990947998046875 3.2982375 L 6.121447998046874 3.5037374999999997 L 6.062197998046875 3.5037374999999997 L 5.9369479980468745 3.3072375 L 5.779447998046875 3.3072375 L 5.779447998046875 3.5037374999999997 L 5.7269479980468745 3.5037374999999997 M 5.779447998046875 3.2607375 L 5.953447998046874 3.2607375 Q 5.9849479980468745 3.2607375 6.0081979980468745 3.2434874999999996 Q 6.0314479980468745 3.2262375 6.044197998046875 3.1981124999999997 Q 6.056947998046875 3.1699874999999995 6.056947998046875 3.1384874999999997 Q 6.056947998046875 3.1062374999999998 6.042322998046875 3.0788624999999996 Q 6.027697998046874 3.0514875 6.003322998046874 3.0346124999999997 Q 5.978947998046874 3.0177375 5.948947998046875 3.0177375 L 5.779447998046875 3.0177375 L 5.779447998046875 3.2607375 M 6.217834350585937 3.5037374999999997 L 6.217834350585937 2.9712375 L 6.270334350585937 2.9712375 L 6.270334350585937 3.5037374999999997 L 6.217834350585937 3.5037374999999997 M 6.78294873046875 3.0177375 L 6.59319873046875 3.0177375 L 6.59319873046875 3.5037374999999997 L 6.540698730468749 3.5037374999999997 L 6.540698730468749 3.0177375 L 6.350948730468749 3.0177375 L 6.350948730468749 2.9712375 L 6.78294873046875 2.9712375 L 6.78294873046875 3.0177375 M 6.866562744140625 2.9712375 L 7.040562744140625 3.2577374999999997 L 7.216062744140625 2.9712375 L 7.273062744140625 2.9712375 L 7.066812744140625 3.3057374999999998 L 7.066812744140625 3.5037374999999997 L 7.014312744140625 3.5037374999999997 L 7.014312744140625 3.3042374999999997 L 6.808812744140624 2.9712375 L 6.866562744140625 2.9712375" fill="#1dd000" fill-rule="nonzero"></path></g><g clip-path="url(#SvgjsClipPath1050)"><g clip-path="url(#SvgjsClipPath10495fc0e7c9-07c5-438d-b879-06fb7399141d)"><path d=" M -0.42198129741476054 2.1908321017097885 C -0.4626592602014399 1.931306699130775 -0.5537778968436022 1.682357566876298 -0.6847609370167085 1.4553745345266278 L -1.5715405257663164 -0.08550669583278325 L -2.3078116522052112 1.2088660800393511 C -2.331404870621485 1.2503576020817637 -2.3541845297820254 1.2926626833799104 -2.3753370704310988 1.3349677646780567 C -2.2549303005825285 1.3333406461665895 -2.148354038081429 1.3227643758420529 -2.069438790275271 1.31300166477325 C -1.935201513079229 1.2951033611471112 -1.7985235581159866 1.2942898018913778 -1.665099840175679 1.3178830203076517 C -0.7506592367311287 1.4781541936871676 -0.49682874894225115 2.301476160489556 -0.42686265294916215 2.7432388363528926 C -0.3878118086739506 2.5553066482784343 -0.39594740123128647 2.362493104669575 -0.42198129741476054 2.1908321017097885 Z M -1.1281507313915127 0.9826966069454139 C -1.1273371721357792 0.9778152514110126 -1.189167675571532 0.9387644071358003 -1.1956761496174007 0.9338830516013987 C -1.2119473347320722 0.9216796627653951 -1.2314727568696782 0.9094762739293912 -1.2453032642171493 0.8940186480704531 C -1.2485575012400836 0.8907644110475187 -1.2509981790072844 0.8866966147688508 -1.2534388567744852 0.8826288184901829 C -1.2778456344464928 0.8419508557035037 -1.2843541084923615 0.792323741103755 -1.2688964826334233 0.7467644227826743 C -1.2632015678432884 0.729679678412269 -1.2518117382630176 0.71178137478613 -1.233913434636879 0.707713578507462 C -1.2249642828238092 0.7052729007402612 -1.2152015717550066 0.707713578507462 -1.2054388606862034 0.7109678155303963 C -1.1566253053421882 0.7288661191565351 -1.126523612880046 0.778493233756284 -1.1175744610669764 0.8297474668674999 C -1.1094388685096404 0.8801881407229823 -1.1192015795784436 0.9322559330899318 -1.1281507313915127 0.9826966069454139 Z M -1.037845654005085 1.16330676171827 C -1.0622524316770927 1.1722559135313395 -1.0923541241392352 1.1486626951150656 -1.1053710722309729 1.1112389693513205 C -1.1183880203227106 1.0738152435875759 -1.1094388685096408 1.0363915178238308 -1.0850320908376334 1.0282559252664951 C -1.0606253131656258 1.0193067734534256 -1.030523620703483 1.0428999918696995 -1.0175066726117454 1.0803237176334446 C -1.004489724520008 1.1177474433971892 -1.0134388763330775 1.1543576099052004 -1.037845654005085 1.16330676171827 Z" fill="#002633" transform="matrix(1,0,0,1,0,0)" fill-rule="nonzero"></path></g><g clip-path="url(#SvgjsClipPath10495fc0e7c9-07c5-438d-b879-06fb7399141d)"><path d=" M -1.899404905826952 3.075984571947929 C -2.1361506492454256 3.114221856967408 -2.3802184259655013 3.0784252497151297 -2.5909302732004997 2.966154072423895 C -2.494116721768203 3.188255749239164 -2.3338455483886866 3.3346964152712095 -2.168693019474769 3.4306964074477726 C -1.8579133837845394 3.611306562220629 -1.4820490076356232 3.6348997806369026 -1.1427947979947175 3.515306570044065 C -0.8067948253767474 3.3965269187069618 -0.6131677225121535 3.2028998158423683 -0.5082185785225204 2.9832388167943007 C -0.8181846549570171 2.9181540763356137 -1.5381845962812402 3.0182218647908448 -1.899404905826952 3.075984571947929 Z" fill="#002633" transform="matrix(1,0,0,1,0,0)" fill-rule="nonzero"></path></g><g clip-path="url(#SvgjsClipPath10495fc0e7c9-07c5-438d-b879-06fb7399141d)"><path d=" M -0.504964341499587 2.7334761252840902 C -0.5464558635419992 2.648865962687797 -0.592015181863081 2.567510037114439 -0.6473372112529638 2.4910354670754815 C -0.8157439771898165 2.258357519935676 -1.022388028146147 2.0549677060022793 -1.2884219047710297 1.9361880546651766 C -1.54957442586151 1.8198490810952734 -1.8139811839749254 1.7685948479840576 -2.1027947197603485 1.7694084072397913 C -2.2297099636547877 1.7702219664955248 -2.3387269039230882 1.7604592554267215 -2.430659099820983 1.7458151888235174 C -2.4688963848404617 1.7401202740333825 -2.505506551348473 1.731171122220313 -2.5421167178564845 1.719781292640043 C -2.748760768812815 1.6563236706928233 -2.925303127307003 1.5139508009394456 -3.0286251527851684 1.3203236980748525 C -3.029438712040902 1.3195101388191188 -3.029438712040902 1.3186965795633852 -3.0302522712966358 1.3178830203076517 C -3.0302522712966358 1.3178830203076517 -3.0302522712966358 1.3178830203076517 -3.0302522712966358 1.3178830203076517 C -3.04489633789984 1.3105609870060493 -3.0595404045030445 1.3024253944487132 -3.0741844711062494 1.2942898018913778 C -3.0741844711062494 1.2942898018913778 -3.2751336072724446 2.3071710752796912 -2.6470658618461167 2.801815102765712 C -2.6194048471511753 2.823781202670518 -2.590116713944766 2.8441201840638577 -2.5592014622268895 2.8644591654571974 C -2.353370970526292 2.9954422056303045 -2.104421838271816 3.0385608461841844 -1.863608298574674 3.0003235611647066 C -1.486930363170024 2.9401201762404208 -0.6847609370167085 2.8302896767163874 -0.49194739340784954 2.94906932805349 C -0.4903202748963813 2.949882887309224 -0.48869315638491484 2.950696446564957 -0.48706603787344704 2.9523235650764246 C -0.48706603787344704 2.9523235650764246 -0.48706603787344704 2.9474422095420225 -0.48706603787344704 2.9376794984732193 C -0.4878795971291807 2.9075778060110773 -0.4911338341521154 2.8335439137393212 -0.504964341499587 2.7334761252840902 Z" fill="#002633" transform="matrix(1,0,0,1,0,0)" fill-rule="nonzero"></path></g><g clip-path="url(#SvgjsClipPath10495fc0e7c9-07c5-438d-b879-06fb7399141d)"><path d=" M -0.504964341499587 2.7334761252840902 C -0.504964341499587 2.7334761252840902 -0.504964341499587 2.7334761252840902 -0.504964341499587 2.7334761252840902 C -0.5065914600110544 2.7220862957038205 -0.5082185785225204 2.71069646612355 -0.5098456970339886 2.6993066365432794 C -0.5098456970339886 2.696865958776079 -0.5106592562897219 2.6952388402646115 -0.5106592562897219 2.692798162497411 C -0.5122863748011901 2.680594773661407 -0.5147270525683902 2.6683913848254033 -0.5171677303355904 2.6553744367336654 C -0.5171677303355904 2.6553744367336654 -0.5171677303355904 2.654560877477932 -0.5171677303355904 2.654560877477932 C -0.519608408102791 2.6423574886419283 -0.5212355266142579 2.6301540998059245 -0.5236762043814585 2.6179507109699207 C -0.5244897636371926 2.6155100332027192 -0.5244897636371926 2.6122557961797854 -0.5253033228929267 2.609815118412585 C -0.5277440006601268 2.596798170320847 -0.5309982376830611 2.5829676629733767 -0.5334389154502617 2.5699507148816396 C -0.5334389154502617 2.5691371556259055 -0.5334389154502617 2.5683235963701723 -0.5342524747059958 2.567510037114438 C -0.5366931524731959 2.554493089022701 -0.5399473894961315 2.541476140930964 -0.5432016265190658 2.528459192839226 C -0.544015185774799 2.5252049558162915 -0.5448287450305331 2.5219507187933576 -0.5456423042862659 2.519510041026156 C -0.5488965413091997 2.505679533678686 -0.552150778332134 2.4910354670754806 -0.5562185746108024 2.4772049597280104 C -0.5562185746108024 2.4763914004722762 -0.5570321338665356 2.475577841216543 -0.5570321338665356 2.4747642819608098 C -0.5602863708894699 2.461747333869072 -0.5643541671681374 2.4479168265216007 -0.5684219634468057 2.4340863191741295 C -0.5692355227025399 2.4308320821511957 -0.5700490819582731 2.427577845128261 -0.5716762004697404 2.423510048849593 C -0.5757439967484079 2.4088659822463887 -0.5806253522828095 2.3942219156431843 -0.5846931485614779 2.37957784903998 C -0.5846931485614779 2.378764289784246 -0.5855067078172111 2.3771371712727785 -0.5855067078172111 2.376323612017046 C -0.5895745040958795 2.362493104669575 -0.5944558596302811 2.348662597322104 -0.5993372151646827 2.3348320899746327 C -0.6009643336761501 2.3307642936959647 -0.6017778929318829 2.327510056673031 -0.6034050114433502 2.323442260394363 C -0.6082863669777518 2.3087981937911577 -0.6139812817678867 2.29334056793222 -0.6196761965580224 2.2778829420732816 C -0.6204897558137565 2.2770693828175474 -0.6204897558137565 2.275442264306081 -0.6213033150694893 2.2746287050503478 C -0.6269982298596251 2.2607981977028766 -0.6318795853940258 2.246154131099672 -0.6375745001841615 2.232323623752201 C -0.6392016186956289 2.228255827473533 -0.6408287372070958 2.2250015904505993 -0.6424558557185631 2.2209337941719314 C -0.6489643297644321 2.2054761683129938 -0.6554728038103006 2.1908321017097885 -0.6619812778561696 2.17537447585085 C -0.6627948371119028 2.1745609165951167 -0.6627948371119028 2.1729337980836494 -0.6636083963676369 2.172120238827916 C -0.6701168704135045 2.158289731480445 -0.6766253444593744 2.1436456648772406 -0.683133818505242 2.1298151575297695 C -0.6847609370167103 2.1257473612511024 -0.6872016147839108 2.1216795649724336 -0.6888287332953777 2.1184253279495 C -0.6961507665969808 2.1029677020905613 -0.7042863591543158 2.0883236354873578 -0.7124219517116517 2.0728660096284193 C -0.7132355109673858 2.071238891116952 -0.7140490702231199 2.070425331861218 -0.7140490702231199 2.0687982133497513 C -0.7213711035247217 2.05496770600228 -0.729506696082058 2.041137198654809 -0.737642288639393 2.0264931320516046 C -0.7400829664065931 2.0224253357729367 -0.7417100849180613 2.0183575394942688 -0.7441507626852619 2.015103302471334 C -0.753099914498331 2.0004592358681297 -0.762049066311401 1.9850016100091918 -0.7709982181244701 1.970357543405987 C -0.7718117773802033 1.9695439841502538 -0.7726253366359375 1.9679168656387864 -0.7734388958916703 1.9671033063830532 C -0.7823880477047394 1.953272799035582 -0.7913371995178098 1.9394422916881113 -0.8010999105866117 1.9256117843406402 C -0.8035405883538123 1.9215439880619722 -0.8059812661210133 1.9182897510390375 -0.809235503143948 1.9142219547603703 C -0.819811773468484 1.8995778881571654 -0.8295744845372872 1.8849338215539606 -0.8409643141175569 1.87110331420649 C -0.841777873373291 1.8702897549507562 -0.8425914326290251 1.8694761956950228 -0.843404991884757 1.8678490771835559 C -0.8539812622092935 1.8548321290918184 -0.8645575325338308 1.8410016217443472 -0.8751338028583673 1.8279846736526104 C -0.8783880398813015 1.8247304366296762 -0.8808287176485017 1.820662640351008 -0.8840829546714373 1.8174084033280737 C -0.8954727842517065 1.803577895980603 -0.9076761730877112 1.7897473886331317 -0.9198795619237146 1.7759168812856605 C -0.9206931211794478 1.775103322029927 -0.9215066804351819 1.7742897627741934 -0.9223202396909151 1.7734762035184597 C -0.9337100692711853 1.7604592554267222 -0.9459134581071891 1.7482558665907182 -0.9589304061989266 1.7352389184989814 C -0.9621846432218608 1.7319846814760471 -0.9654388802447955 1.7287304444531126 -0.9695066765234635 1.7246626481744447 C -0.9825236246152005 1.711645700082707 -0.9963541319626716 1.69862875199097 -1.0101846393101428 1.686425363154966 C -1.010998198565876 1.6856118038992323 -1.0118117578216097 1.6847982446434993 -1.0126253170773434 1.6847982446434993 C -1.026455824424814 1.6725948558074952 -1.0402863317722852 1.6612050262272253 -1.0541168391197564 1.649815196646955 C -1.0581846353984243 1.6465609596240205 -1.0614388724213586 1.643306722601086 -1.0655066687000265 1.6408660448338852 C -1.0809642945589646 1.6286626559978812 -1.0956083611621694 1.6172728264176113 -1.1118795462768407 1.605882996837341 C -1.1126931055325744 1.6050694375816073 -1.1135066647883078 1.6050694375816073 -1.1135066647883078 1.6042558783258738 C -1.128964290647246 1.593679608001337 -1.1444219165061842 1.5831033376768007 -1.1606931016208557 1.5725270673522642 C -1.1647608978995239 1.5700863895850634 -1.1696422534339255 1.5668321525621292 -1.1737100497125934 1.5643914747949283 C -1.190794794082999 1.5538152044703915 -1.2078795384534042 1.5432389341458552 -1.2257778420795429 1.533476223077052 C -1.2265914013352766 1.533476223077052 -1.2265914013352766 1.5326626638213183 -1.2274049605910096 1.5326626638213183 C -1.2444897049614152 1.522899952752515 -1.2623880085875538 1.5139508009394456 -1.2802863122136927 1.5050016491263765 C -1.2851676677480948 1.5025609713591757 -1.290049023282496 1.5001202935919749 -1.2949303788168975 1.4976796158247745 C -1.3136422416987699 1.488730464011705 -1.3331676638363756 1.4797813121986358 -1.352693085973982 1.4716457196412998 C -1.3535066452297158 1.4716457196412998 -1.3535066452297158 1.4716457196412998 -1.3543202044854494 1.470832160385566 C -1.3738456266230552 1.4626965678282302 -1.3933710487606616 1.4553745345266282 -1.4137100301540013 1.4480525012250254 C -1.418591385688403 1.4464253827135587 -1.424286300478538 1.4439847049463579 -1.4291676560129392 1.4423575864348905 C -1.4503201966620123 1.4350355531332886 -1.4714727373110854 1.4277135198316857 -1.4934388372158922 1.422018605041551 C -1.4934388372158922 1.422018605041551 -1.4942523964716257 1.422018605041551 -1.4942523964716257 1.422018605041551 C -1.5162184963764325 1.4155101309956817 -1.5381845962812393 1.409815216205547 -1.5609642554417795 1.4049338606711455 C -1.5666591702319148 1.4033067421596783 -1.5723540850220499 1.4024931829039446 -1.5780489998121852 1.4008660643924775 C -1.600828658972726 1.395984708858076 -1.6244218773889993 1.3911033533236743 -1.648828655061007 1.3862219977892727 C -1.7716761026767787 1.3650694571401996 -1.8969642280597507 1.365883016395933 -2.019811675675522 1.3821542015106045 C -2.027133708977124 1.3829677607663386 -2.034455742278727 1.3837813200220719 -2.0417777755803286 1.385408438533539 C -2.0417777755803286 1.385408438533539 -2.0425913348360627 1.385408438533539 -2.0425913348360627 1.385408438533539 C -2.0857099753899426 1.3911033533236739 -2.1369642085011584 1.3992389458810097 -2.192286237891042 1.4057474199268785 C -2.192286237891042 1.4057474199268785 -2.1930997971467763 1.4057474199268785 -2.1930997971467763 1.4057474199268785 C -2.202048948959846 1.4065609791826121 -2.2118116600286486 1.4081880976940793 -2.221574371097452 1.409001656949813 C -2.221574371097452 1.409001656949813 -2.222387930353185 1.409001656949813 -2.222387930353185 1.409001656949813 C -2.2321506414219883 1.4098152162055466 -2.2410997932350583 1.4114423347170137 -2.2508625043038606 1.412255893972747 C -2.2516760635595943 1.412255893972747 -2.2516760635595943 1.412255893972747 -2.252489622815328 1.412255893972747 C -2.2622523338841307 1.4130694532284804 -2.272015044952934 1.4146965717399478 -2.281777756021737 1.4155101309956812 C -2.282591315277471 1.4155101309956812 -2.282591315277471 1.4155101309956812 -2.283404874533204 1.4155101309956812 C -2.2931675856020073 1.416323690251415 -2.3037438559265437 1.417137249507148 -2.3135065669953465 1.417950808762882 C -2.3135065669953465 1.417950808762882 -2.3143201262510806 1.417950808762882 -2.3143201262510806 1.417950808762882 C -2.324896396575617 1.4187643680186157 -2.335472666900154 1.4195779272743487 -2.34604893722469 1.4203914865300828 C -2.34604893722469 1.4203914865300828 -2.34604893722469 1.4203914865300828 -2.34604893722469 1.4203914865300828 C -2.3704557148966976 1.4220186050415502 -2.394862492568705 1.4236457235530169 -2.420082829496447 1.424459282808751 C -2.6169641693839742 1.4325948753660869 -2.838252286943509 1.4146965717399478 -3.029438712040902 1.3178830203076513 C -3.029438712040902 1.3178830203076513 -3.029438712040902 1.3178830203076513 -3.029438712040902 1.3178830203076513 C -3.0286251527851684 1.3186965795633847 -3.0286251527851684 1.3195101388191184 -3.027811593529435 1.320323698074852 C -2.9244895680512695 1.5139508009394451 -2.7479472095570814 1.6563236706928228 -2.5413031586007513 1.7197812926400426 C -2.50469299209274 1.7311711222203126 -2.4680828255847285 1.740120274033382 -2.4298455405652497 1.745815188823517 C -2.3379133446673546 1.7604592554267215 -2.2288964043990545 1.7694084072397909 -2.101981160504615 1.7694084072397909 C -1.813981183974926 1.7685948479840572 -1.54957442586151 1.819849081095273 -1.2876083455152965 1.9361880546651762 C -1.0215744688904138 2.0549677060022793 -0.8149304179340824 2.258357519935676 -0.6465236519972315 2.4910354670754806 C -0.5920151818630797 2.566696477858705 -0.5464558635419992 2.648865962687797 -0.504964341499587 2.7334761252840902 L -0.504964341499587 2.7334761252840902 L -0.504964341499587 2.7334761252840902 Z" fill="#1ba904" transform="matrix(1,0,0,1,0,0)" fill-rule="nonzero"></path></g></g></g><defs><clipPath id="SvgjsClipPath1050"><path d=" M -3.104781033149039 -0.08550669583278325 h 2.704781033149039 v 3.6747508916655662 h -2.704781033149039 Z"></path></clipPath><clipPath id="SvgjsClipPath10495fc0e7c9-07c5-438d-b879-06fb7399141d"><path d=" M -3.104781033149039 -0.08550669583278325 L -0.3999999999999999 -0.08550669583278325 L -0.3999999999999999 3.5892441958327828 L -3.104781033149039 3.5892441958327828 Z"></path></clipPath></defs></svg>